<svg width="21" height="21" viewBox="0 0 21 21" fill="none" xmlns="http://www.w3.org/2000/svg">
<path d="M10.5 0C16.299 0 21 4.70101 21 10.5C21 16.299 16.299 21 10.5 21C4.70101 21 0 16.299 0 10.5C0 4.70101 4.70101 0 10.5 0ZM11.4697 7.51758C11.4125 7.47379 11.3311 7.51644 11.3311 7.58984V9.82812H5.78711C5.73941 9.82812 5.7002 9.86871 5.7002 9.91797V11.082C5.7002 11.1313 5.73941 11.1719 5.78711 11.1719H11.332V13.4102C11.332 13.4836 11.4135 13.5263 11.4707 13.4824L15.2646 10.5713C15.3115 10.5355 15.3115 10.4636 15.2646 10.4277V10.4287L11.4697 7.51758Z" fill="white"/>
</svg>
