<svg width="41" height="41" viewBox="0 0 41 41" fill="none" xmlns="http://www.w3.org/2000/svg">
<path d="M40.2019 15.9233C38.9718 11.2388 34.2546 8.46487 29.6728 9.71945C29.4697 9.777 29.2665 9.84606 29.0747 9.91512C29.086 9.69643 29.1085 9.48925 29.1085 9.27056C29.0973 4.42488 25.249 0.5 20.4979 0.5C15.7469 0.5 11.8986 4.42488 11.8986 9.27056C11.8986 9.48925 11.9099 9.69643 11.9325 9.91512C11.7293 9.84606 11.5375 9.777 11.3344 9.71945C6.74129 8.46487 2.02408 11.2388 0.793991 15.9233C-0.40224 20.4812 2.1595 25.1543 6.52687 26.547C6.34631 26.8002 6.17703 27.0649 6.01903 27.3411C3.64914 31.5308 5.04851 36.9059 9.1676 39.323C13.0497 41.6135 17.9588 40.451 20.4979 36.7793C23.0258 40.451 27.9349 41.6135 31.8283 39.323C35.9361 36.9059 37.3467 31.5308 34.9768 27.3411C34.8188 27.0649 34.6496 26.8002 34.469 26.547C38.8477 25.1543 41.3981 20.4812 40.2019 15.9233Z" fill="white" stroke="#654214" stroke-linejoin="round"/>
<path d="M23.3238 24.6723C22.6472 25.2758 22.5877 26.3269 23.1909 27.0199C23.7941 27.713 24.8316 27.7855 25.5083 27.1819C26.1849 26.5784 26.2444 25.5273 25.6412 24.8343C25.038 24.1412 24.0004 24.0687 23.3238 24.6723Z" fill="#2DE693"/>
<path d="M25.7232 18.5928C25.0466 19.1964 24.9871 20.2474 25.5903 20.9405C26.1935 21.6335 27.2311 21.706 27.9077 21.1025C28.5843 20.4989 28.6438 19.4478 28.0406 18.7548C27.4374 18.0618 26.3999 17.9892 25.7232 18.5928Z" fill="#2DE693"/>
<path d="M18.9781 13.5752C18.3015 14.1787 18.242 15.2298 18.8452 15.9228C19.4484 16.6159 20.4859 16.6884 21.1626 16.0848C21.8392 15.4813 21.8987 14.4302 21.2955 13.7372C20.6923 13.0441 19.6547 12.9716 18.9781 13.5752Z" fill="#2DE693"/>
<path d="M16.213 25.4349C15.5363 26.0385 15.4768 27.0895 16.0801 27.7826C16.6833 28.4756 17.7208 28.5481 18.3974 27.9446C19.074 27.341 19.1336 26.2899 18.5303 25.5969C17.9271 24.9039 16.8896 24.8313 16.213 25.4349Z" fill="#2DE693"/>
<path d="M12.9874 18.919C12.3108 19.5226 12.2513 20.5737 12.8545 21.2667C13.4577 21.9597 14.4952 22.0323 15.1718 21.4287C15.8485 20.8252 15.908 19.7741 15.3047 19.081C14.7015 18.388 13.664 18.3155 12.9874 18.919Z" fill="#2DE693"/>
</svg>
