<svg width="40" height="40" viewBox="0 0 40 40" fill="none" xmlns="http://www.w3.org/2000/svg">
<mask id="mask0_99_267" style="mask-type:alpha" maskUnits="userSpaceOnUse" x="0" y="0" width="40" height="40">
<rect width="40" height="40" fill="#D9D9D9"/>
</mask>
<g mask="url(#mask0_99_267)">
<path d="M19.8694 9.51457C22.8202 9.41208 24.6744 8 27.987 8C32.8033 8 38.7388 12.1451 38.7388 21.1186C38.7388 30.8665 32.1136 38.8607 25.9519 39.3276C22.8089 39.7262 20.8078 38.5305 19.8694 38.5305C18.931 38.5305 16.9299 39.7262 13.7869 39.3276C7.62521 38.8721 1 30.8779 1 21.1186C1 12.1451 6.92425 8 11.7518 8C15.0757 8 16.9186 9.41208 19.8694 9.51457Z" fill="#FFEE35"/>
<path d="M14.8948 12.4738C18.0604 13.7378 21.2147 13.7378 24.3804 12.4738" stroke="#B8A051" stroke-width="1.5" stroke-miterlimit="10" stroke-linecap="round"/>
<path d="M31.2885 0.501765C28.6851 -0.284902 26.2219 -0.143705 24.1693 0.905184C22.1166 1.95407 20.5446 3.87031 19.6334 6.44211C19.5433 6.69424 19.6735 6.97664 19.9138 7.07749C20.9751 7.51117 22.0265 7.72296 23.0779 7.72296C24.3996 7.72296 25.7313 7.38006 27.083 6.69424C29.5062 5.46382 30.9981 3.62826 31.6389 1.10689C31.709 0.844671 31.5588 0.572363 31.2985 0.501765H31.2885Z" fill="#2DE693"/>
<path d="M7.1622 26.8178C7.80407 26.8178 8.3244 26.2937 8.3244 25.6472C8.3244 25.0007 7.80407 24.4766 7.1622 24.4766C6.52034 24.4766 6 25.0007 6 25.6472C6 26.2937 6.52034 26.8178 7.1622 26.8178Z" fill="#B8A051"/>
<path d="M16.0511 26.8178C16.693 26.8178 17.2133 26.2937 17.2133 25.6472C17.2133 25.0007 16.693 24.4766 16.0511 24.4766C15.4093 24.4766 14.8889 25.0007 14.8889 25.6472C14.8889 26.2937 15.4093 26.8178 16.0511 26.8178Z" fill="#B8A051"/>
<path d="M11.6065 31.2946C12.2484 31.2946 12.7687 30.7705 12.7687 30.124C12.7687 29.4775 12.2484 28.9534 11.6065 28.9534C10.9647 28.9534 10.4443 29.4775 10.4443 30.124C10.4443 30.7705 10.9647 31.2946 11.6065 31.2946Z" fill="#B8A051"/>
<path d="M11.6065 22.3412C12.2484 22.3412 12.7687 21.8171 12.7687 21.1706C12.7687 20.5241 12.2484 20 11.6065 20C10.9647 20 10.4443 20.5241 10.4443 21.1706C10.4443 21.8171 10.9647 22.3412 11.6065 22.3412Z" fill="#B8A051"/>
<path d="M24.3756 26.8178C25.0174 26.8178 25.5378 26.2937 25.5378 25.6472C25.5378 25.0007 25.0174 24.4766 24.3756 24.4766C23.7337 24.4766 23.2134 25.0007 23.2134 25.6472C23.2134 26.2937 23.7337 26.8178 24.3756 26.8178Z" fill="#B8A051"/>
<path d="M33.2645 26.8178C33.9064 26.8178 34.4267 26.2937 34.4267 25.6472C34.4267 25.0007 33.9064 24.4766 33.2645 24.4766C32.6226 24.4766 32.1023 25.0007 32.1023 25.6472C32.1023 26.2937 32.6226 26.8178 33.2645 26.8178Z" fill="#B8A051"/>
<path d="M28.8199 31.2946C29.4618 31.2946 29.9821 30.7705 29.9821 30.124C29.9821 29.4775 29.4618 28.9534 28.8199 28.9534C28.1781 28.9534 27.6577 29.4775 27.6577 30.124C27.6577 30.7705 28.1781 31.2946 28.8199 31.2946Z" fill="#B8A051"/>
<path d="M28.8199 22.3412C29.4618 22.3412 29.9821 21.8171 29.9821 21.1706C29.9821 20.5241 29.4618 20 28.8199 20C28.1781 20 27.6577 20.5241 27.6577 21.1706C27.6577 21.8171 28.1781 22.3412 28.8199 22.3412Z" fill="#B8A051"/>
</g>
</svg>
