<svg width="27" height="24" viewBox="0 0 27 24" fill="none" xmlns="http://www.w3.org/2000/svg">
<mask id="mask0_68_1118" style="mask-type:alpha" maskUnits="userSpaceOnUse" x="0" y="0" width="27" height="24">
<rect width="27" height="24" fill="#D9D9D9"/>
</mask>
<g mask="url(#mask0_68_1118)">
<path d="M14.3032 5.35571L14.8134 6.21575L14.8135 6.21574L14.3032 5.35571ZM15.814 17.5793L16.814 17.5796V17.5793H15.814ZM14.3032 18.4387L14.8135 17.5787L14.8135 17.5787L14.3032 18.4387ZM5.61865 13.2864L6.12889 12.4263C5.81252 12.2386 5.41864 12.2398 5.10337 12.4294L5.61865 13.2864ZM3.26514 14.7014L3.78029 15.5585L3.78042 15.5584L3.26514 14.7014ZM1.74951 13.845H0.749512L0.749512 13.8454L1.74951 13.845ZM3.26514 9.02563L3.7806 8.16872L3.78029 8.16854L3.26514 9.02563ZM5.67432 10.4749L5.15885 11.3318C5.47414 11.5214 5.8681 11.5226 6.18454 11.3349L5.67432 10.4749ZM14.3032 5.35571L14.8135 6.21574L14.814 6.21606H15.814H16.814C16.814 4.66596 15.1262 3.70468 13.793 4.49569L14.3032 5.35571ZM15.814 6.21606H14.814V17.5793H15.814H16.814V6.21606H15.814ZM15.814 17.5793L14.814 17.5791L14.8135 17.5787L14.3032 18.4387L13.793 19.2987C15.125 20.0891 16.8136 19.1306 16.814 17.5796L15.814 17.5793ZM14.3032 18.4387L14.8135 17.5787L6.12889 12.4263L5.61865 13.2864L5.10842 14.1464L13.793 19.2988L14.3032 18.4387ZM5.61865 13.2864L5.10337 12.4294L2.74986 13.8444L3.26514 14.7014L3.78042 15.5584L6.13393 14.1434L5.61865 13.2864ZM3.26514 14.7014L2.74998 13.8443L2.74951 13.8446L1.74951 13.845L0.749512 13.8454C0.750147 15.401 2.44823 16.3591 3.78029 15.5585L3.26514 14.7014ZM1.74951 13.845H2.74951V9.88306H1.74951H0.749512V13.845H1.74951ZM1.74951 9.88306H2.74951L2.74998 9.88273L3.26514 9.02563L3.78029 8.16854C2.44718 7.36728 0.749512 8.32788 0.749512 9.88306H1.74951ZM3.26514 9.02563L2.74967 9.88254L5.15885 11.3318L5.67432 10.4749L6.18978 9.61794L3.7806 8.16872L3.26514 9.02563ZM5.67432 10.4749L6.18454 11.3349L14.8134 6.21575L14.3032 5.35571L13.793 4.49567L5.16409 9.61481L5.67432 10.4749Z" fill="#654214"/>
<line x1="22" y1="11.875" x2="25.2502" y2="11.875" stroke="#654214" stroke-width="2" stroke-linecap="round"/>
<line x1="1" y1="-1" x2="4.60021" y2="-1" transform="matrix(0.866019 0.500011 -0.499988 0.866032 19.25 16.2)" stroke="#654214" stroke-width="2" stroke-linecap="round"/>
<line x1="1" y1="-1" x2="4.60021" y2="-1" transform="matrix(0.866019 -0.500011 -0.499988 -0.866032 19.25 7.79956)" stroke="#654214" stroke-width="2" stroke-linecap="round"/>
</g>
</svg>
