<?xml version="1.0" encoding="UTF-8"?><svg id="_レイヤー_1" xmlns="http://www.w3.org/2000/svg" width="44" height="48" viewBox="0 0 44 48"><defs><style>.cls-1{fill:#fff;}.cls-2{fill:#333;}</style></defs><g id="bg"><path class="cls-1" d="M40,48H4c-2.21,0-4-1.79-4-4V4C0,1.79,1.79,0,4,0h29l11,11v33c0,2.21-1.79,4-4,4Z"/></g><g id="W"><path class="cls-2" d="M15.75,35.52l-3.59-15.03h3.11l2.27,10.33,2.75-10.33h3.61l2.63,10.5,2.31-10.5h3.06l-3.65,15.03h-3.22l-2.99-11.24-2.98,11.24h-3.29Z"/></g><g id="_ふち"><path class="cls-2" d="M31.76,3l9.24,9.24v31.76c0,.55-.45,1-1,1H4c-.55,0-1-.45-1-1V4c0-.55.45-1,1-1h27.76M33,0H4C1.79,0,0,1.79,0,4v40c0,2.21,1.79,4,4,4h36c2.21,0,4-1.79,4-4V11L33,0h0Z"/><path class="cls-2" d="M44,14h-10c-2.21,0-4-1.79-4-4V0l14,14Z"/></g></svg>