<?xml version="1.0" encoding="UTF-8"?><svg id="_レイヤー_1" xmlns="http://www.w3.org/2000/svg" width="44" height="48" viewBox="0 0 44 48"><defs><style>.cls-1{fill:#fff;}.cls-2{fill:#333;}</style></defs><g id="bg"><path class="cls-1" d="M40,48H4c-2.21,0-4-1.79-4-4V4C0,1.79,1.79,0,4,0h29l11,11v33c0,2.21-1.79,4-4,4Z"/></g><g id="file"><rect class="cls-2" x="9" y="21" width="26" height="3"/><rect class="cls-2" x="9" y="28" width="26" height="3"/><rect class="cls-2" x="9" y="35" width="26" height="3"/></g><g id="_ふち"><path class="cls-2" d="M31.76,3l9.24,9.24v31.76c0,.55-.45,1-1,1H4c-.55,0-1-.45-1-1V4c0-.55.45-1,1-1h27.76M33,0H4C1.79,0,0,1.79,0,4v40c0,2.21,1.79,4,4,4h36c2.21,0,4-1.79,4-4V11L33,0h0Z"/><path class="cls-2" d="M44,14h-10c-2.21,0-4-1.79-4-4V0l14,14Z"/></g></svg>