<?xml version="1.0" encoding="utf-8"?>
<!-- Generator: Adobe Illustrator 23.0.3, SVG Export Plug-In . SVG Version: 6.00 Build 0)  -->
<svg version="1.1" id="レイヤー_1" xmlns="http://www.w3.org/2000/svg" xmlns:xlink="http://www.w3.org/1999/xlink" x="0px"
	 y="0px" viewBox="0 0 28.9 28.9" style="enable-background:new 0 0 28.9 28.9;" xml:space="preserve">
<style type="text/css">
	.st0{fill:#FFFFFF;}
</style>
<path class="st0" d="M22.9,0.8C22.9,0.8,22.9,0.8,22.9,0.8C22.9,0.8,22.9,0.8,22.9,0.8c-0.2,0-0.3,0-0.4,0c-0.6,0.1-1.2,0.1-2.4,0.1
	h-10c-1.2,0-1.7,0-2.5-0.1c-0.1,0-0.2,0-0.3,0c-0.8,0-1.6,0.3-2.1,0.9c-0.6,0.7-1,1.6-0.8,2.5c0.1,0.6,0.1,1.7,0.1,3.2
	c0,5.8-0.2,8.5-0.7,10.6c-0.4,1.3-0.9,2-1.8,2.9C1.3,21.4,1,22.3,1,23.1c0.1,0.9,0.5,1.7,1.2,2.2c0.7,0.5,1.1,1,1.7,1.7
	c0.6,0.7,1.4,1.1,2.3,1.2c0,0,0,0,0,0c0.9,0,1.8-0.4,2.3-1.1c1.7-2.1,2.7-3.7,3.3-5.7c0.1-0.3,0.2-0.6,0.3-0.8H13
	c-0.5,0.8-0.5,1.8-0.2,2.6c0.4,0.9,0.4,1.1,0.5,1.8c0.1,1.5,1.3,2.6,2.7,2.7c1.3,0.1,2.2,0.1,3,0.1c1.7,0,3.3-0.1,4.6-1.1
	c1.4-1,2.1-2.6,2.1-4.7V6.4c0-1.2,0-1.7,0-2c0-0.2,0.1-0.4,0.1-0.6C25.9,2.1,24.6,0.8,22.9,0.8z"/>
<path d="M9.7,17.5c-0.2,1.2-0.4,2-0.7,2.9c-0.6,1.8-1.5,3.2-2.8,4.8C5.5,24.3,4.9,23.7,4,23c1.3-1.3,2-2.4,2.6-4.2
	c0.6-2.4,0.8-5.2,0.8-11.4c0-1.7,0-2.8-0.1-3.6c0.9,0.1,1.6,0.1,2.8,0.1h10c1.3,0,2,0,2.8-0.1c-0.1,0.6-0.1,1.2-0.1,2.6V22
	c0,1.2-0.3,1.9-0.9,2.3c-0.5,0.4-1.2,0.5-2.8,0.5c-0.8,0-1.6,0-2.8-0.1C16.2,23.5,16,23,15.6,22c1.2,0.2,2.5,0.3,3.5,0.3
	c0.7,0,0.9-0.1,0.9-0.6v-4.2C20.1,17.5,9.7,17.5,9.7,17.5z M20.2,15v-3.2h-10c0,0.7,0,1.3-0.2,3.2C9.9,15,20.2,15,20.2,15z
	 M20.2,9.3v-3h-9.9v3H20.2z"/>
</svg>
