<?xml version="1.0" encoding="utf-8"?>
<!-- Generator: Adobe Illustrator 23.0.3, SVG Export Plug-In . SVG Version: 6.00 Build 0)  -->
<svg version="1.1" id="レイヤー_1" xmlns="http://www.w3.org/2000/svg" xmlns:xlink="http://www.w3.org/1999/xlink" x="0px"
	 y="0px" viewBox="0 0 28.9 28.9" style="enable-background:new 0 0 28.9 28.9;" xml:space="preserve">
<style type="text/css">
	.st0{fill:#FFFFFF;}
</style>
<path class="st0" d="M25.9,22V6.5c0-0.7,0-1.3,0.1-2c0-0.1,0-0.3,0-0.4c0-1.7-1.3-3-3-3c0,0,0,0,0,0c0,0-0.1,0-0.1,0
	c-0.1,0-0.3,0-0.4,0c-0.5,0.1-1.2,0.1-2.1,0.1H8.8c-1,0-1.7,0-2.3-0.1c-0.1,0-0.2,0-0.4,0c-0.8,0-1.6,0.3-2.1,0.9
	C3.3,2.6,3,3.5,3.1,4.4C3.2,5,3.2,5.8,3.2,6.7L3.1,21.9c0,1,0,1.9-0.1,2.5c-0.1,0.9,0.2,1.7,0.7,2.4s1.4,1,2.2,1h2.9
	c1.1,0,2-0.6,2.5-1.4h6.1c0.5,0.8,1.5,1.4,2.5,1.4H23c0.9,0,1.7-0.4,2.2-1c0.6-0.6,0.8-1.5,0.7-2.3C25.9,23.8,25.9,23.1,25.9,22z"/>
<path d="M6.2,6.7c0-0.9,0-1.8-0.1-2.6c0.8,0.1,1.6,0.1,2.7,0.1h11.6c1.1,0,1.9,0,2.6-0.1c-0.1,0.9-0.1,1.6-0.1,2.4V22
	c0,1.2,0,2,0.1,2.9h-2.9v-1.4H8.9v1.4H6c0.1-0.8,0.1-1.8,0.1-2.9L6.2,6.7L6.2,6.7z M8.9,12.4h11.2V6.7H8.9V12.4z M8.9,21h11.2v-6.1
	H8.9V21z"/>
</svg>
