<?xml version="1.0" encoding="utf-8"?>
<!-- Generator: Adobe Illustrator 23.0.3, SVG Export Plug-In . SVG Version: 6.00 Build 0)  -->
<svg version="1.1" id="レイヤー_1" xmlns="http://www.w3.org/2000/svg" xmlns:xlink="http://www.w3.org/1999/xlink" x="0px"
	 y="0px" viewBox="0 0 28.9 28.9" style="enable-background:new 0 0 28.9 28.9;" xml:space="preserve">
<style type="text/css">
	.st0{fill:#FFFFFF;}
</style>
<path class="st0" d="M28.5,21.9c-0.2-0.9-0.9-1.7-1.8-2c-1.3-0.5-2.3-0.9-3.2-1.6c-0.4-0.3-0.8-0.6-1.2-0.9c0.2-0.2,0.4-0.4,0.5-0.6
	c1.9-2.8,2.6-4.2,4.1-7.4c0.7-1.5,0-3.3-1.5-4l-2.6-1.2C22.5,4.1,22,4,21.6,4c-0.4,0-0.8,0.1-1.1,0.2c-0.8,0.3-1.4,0.9-1.7,1.7
	c0-1.2,0-1.5,0.1-1.9c0.1-0.9-0.1-1.8-0.7-2.4c-0.6-0.6-1.4-1-2.2-1c0,0-0.1,0-0.1,0l-3,0.1c-0.9,0-1.7,0.4-2.2,1.1
	C10,2.5,9.8,3.3,9.9,4.2C10,4.4,10,4.6,10,5L8.3,4.4C8,4.3,7.6,4.2,7.3,4.2c-0.5,0-1.1,0.1-1.5,0.4C5,5.1,4.5,5.8,4.4,6.7
	C4.1,7.9,4,8.4,3.7,9.2C3.6,9.4,3.6,9.6,3.5,9.7C3,11,2.8,11.4,2,12.4c-0.5,0.7-0.7,1.5-0.6,2.4c0.2,0.8,0.7,1.6,1.4,2l2.5,1.5
	c0.1,0,0.1,0.1,0.2,0.1c-0.9,0.6-2,1.1-3.3,1.6c-1,0.4-1.7,1.2-1.9,2.3c-0.2,1,0.2,2.1,1,2.8c0.5,0.4,0.7,0.7,1.1,1.6
	c0.5,1,1.6,1.7,2.7,1.7c0.4,0,0.8-0.1,1.2-0.2c2.6-1.1,4.4-2.2,6.2-3.9c0,0,0.1-0.1,0.1-0.1c0.7-0.7,1.4-1.5,1.9-2.3
	c0.4,0.5,0.9,1.1,1.4,1.6c0,0,0,0,0.1,0.1c1.9,1.9,4.1,3.4,6.7,4.5c0.4,0.2,0.8,0.2,1.2,0.2c1.1,0,2.1-0.6,2.6-1.6
	c0.5-0.9,0.8-1.2,1.5-2.2C28.5,23.8,28.7,22.9,28.5,21.9z"/>
<path d="M15.9,3.6c-0.1,0.7-0.1,1.2-0.1,3.4c0,3.8,0.4,6,1.3,8.2c1.1,2.3,2.7,4.2,4.7,5.6c1.2,0.8,2.3,1.3,3.8,1.9
	c-0.8,1-1.2,1.5-1.8,2.6c-2.3-1-4.2-2.3-5.8-3.9c-1.7-1.8-2.9-3.8-3.6-6.4c-0.8,2.9-2.1,5.1-4,7c-1.4,1.3-2.9,2.3-5.3,3.3
	c-0.5-1-0.9-1.7-1.8-2.5c3.2-1.2,5.5-2.8,7-4.9c1-1.4,1.8-3.4,2.2-5.4c0.3-1.8,0.5-3.7,0.5-6.3c0-1.3,0-1.9-0.1-2.5L15.9,3.6
	L15.9,3.6z M4.4,14.2c1-1.3,1.3-2,1.9-3.4c0.4-1.2,0.7-1.9,1-3.6l2.6,0.9c-0.4,1.7-0.7,2.6-1.2,4c-0.6,1.5-0.9,2.2-1.8,3.6L4.4,14.2
	z M18.1,13.6c1.7-2.4,2.5-4,3.5-6.6l2.6,1.2c-1.4,3.1-2,4.3-3.8,6.9L18.1,13.6z"/>
</svg>
