<?xml version="1.0" encoding="utf-8"?>
<!-- Generator: Adobe Illustrator 23.0.3, SVG Export Plug-In . SVG Version: 6.00 Build 0)  -->
<svg version="1.1" id="レイヤー_1" xmlns="http://www.w3.org/2000/svg" xmlns:xlink="http://www.w3.org/1999/xlink" x="0px"
	 y="0px" viewBox="0 0 28.9 28.9" style="enable-background:new 0 0 28.9 28.9;" xml:space="preserve">
<style type="text/css">
	.st0{fill:#FFFFFF;}
</style>
<g>
	<path class="st0" d="M12.6,10.5c-0.2,0.5-0.2,0.5-0.5,1.6c-0.8,2.9-1.5,4.5-3,6.8C8,20.6,6.9,21.8,5.5,23c-0.8-0.9-1.2-1.3-2.3-2
		c1.4-1,2.4-2,3.5-3.4c1.4-1.9,2.2-3.6,2.9-5.9H6.5c-0.9,0-1.8,0-2.4,0.1V9c0.6,0.1,1.3,0.1,2.6,0.1h2.5c1.1,0,1.7,0,2.1-0.1
		L12.6,10.5z M24.5,9c0,0-0.5,0.5-1.3,1.4c-1.4,1.5-2.6,2.7-4.3,4.1c0.8,1.1,1.7,2.2,2.7,3.2c1.3,1.3,2.4,2.1,4.2,3
		c-0.8,0.8-1.3,1.4-2.1,2.6c-2-1.4-2.9-2.2-4.1-3.6c-1.6-1.8-2.8-3.9-3.8-6.3c0.1,2.4,0.1,3,0.1,3.7v5.7c0,1.1-0.2,1.6-0.6,1.9
		c-0.4,0.4-1.2,0.6-2.3,0.6c-0.9,0-2.2-0.1-3.1-0.1c-0.1-1.1-0.2-1.7-0.7-2.8c1.3,0.2,2.3,0.3,3.1,0.3c0.7,0,0.9-0.1,0.9-0.6V6.2
		c0-1,0-1.8-0.2-2.5h3c-0.1,0.8-0.2,1.5-0.2,2.5v1.7c0.3,1.5,0.6,2.4,1.6,4.3c2.3-2,3.8-3.7,4.5-5.2L24.5,9z"/>
	<path class="st0" d="M16,3.7L16,3.7 M16,3.7c-0.1,0.8-0.2,1.5-0.2,2.5v1.7c0.3,1.5,0.6,2.4,1.6,4.3c2.3-2,3.8-3.7,4.5-5.2l2.6,2
		c0,0-0.5,0.5-1.3,1.4c-1.4,1.5-2.6,2.7-4.3,4.1c0.8,1.1,1.7,2.2,2.7,3.2c1.3,1.3,2.4,2.1,4.2,3c-0.8,0.8-1.3,1.4-2.1,2.6
		c-2-1.4-2.9-2.2-4.1-3.6c-1.6-1.8-2.8-3.9-3.8-6.3c0.1,2.4,0.1,3,0.1,3.7v5.7c0,1.1-0.2,1.6-0.6,1.9c-0.4,0.4-1.2,0.6-2.3,0.6
		c-0.9,0-2.2-0.1-3.1-0.1c-0.1-1.1-0.2-1.7-0.7-2.8c1.3,0.2,2.3,0.3,3.1,0.3c0.7,0,0.9-0.1,0.9-0.6V6.2c0-1,0-1.8-0.2-2.5H16
		 M11.3,9l1.3,1.5c-0.2,0.5-0.2,0.5-0.5,1.6c-0.8,2.9-1.5,4.5-3,6.8C8,20.6,6.9,21.8,5.5,23c-0.8-0.9-1.2-1.3-2.3-2
		c1.4-1,2.4-2,3.5-3.4c1.4-1.9,2.2-3.6,2.9-5.9H6.5c-0.9,0-1.8,0-2.4,0.1V9c0.6,0.1,1.3,0.1,2.6,0.1h2.5C10.3,9.1,10.9,9.1,11.3,9
		 M16,0.7L16,0.7h-3c-0.9,0-1.8,0.4-2.4,1.2C10,2.6,9.8,3.6,10.1,4.5c0.1,0.3,0.1,0.9,0.1,1.6c-0.3,0-0.6,0-1,0H6.7
		c-1.1,0-1.8,0-2.1-0.1C4.4,6,4.2,6,4.1,6C3.4,6,2.7,6.2,2.1,6.7C1.4,7.2,1.1,8.1,1.1,9v2.8c0,0.9,0.4,1.7,1.1,2.3
		c0.5,0.5,1.2,0.7,1.9,0.7c0.2,0,0.3,0,0.5,0c0.1,0,0.3,0,0.4,0c-0.2,0.4-0.5,0.7-0.7,1.1c-1,1.2-1.8,2-2.9,2.8
		C0.6,19.1,0.1,20,0.2,21c0,1,0.5,1.9,1.4,2.5c0.8,0.5,1,0.7,1.7,1.5c0.6,0.7,1.4,1,2.2,1c0.5,0,1-0.1,1.4-0.4
		c0.2,1.5,1.5,2.6,3,2.6c0.4,0,0.9,0,1.4,0c0.6,0,1.2,0.1,1.7,0.1c1.9,0,3.3-0.4,4.3-1.3c1.3-1.1,1.6-2.7,1.6-3.7
		c0.8,0.8,1.8,1.5,3.1,2.4c0.5,0.4,1.1,0.5,1.7,0.5c0.2,0,0.4,0,0.6-0.1c0.8-0.1,1.5-0.6,1.9-1.3c0.7-1.1,1.1-1.5,1.7-2.1
		c0.7-0.7,1-1.6,0.8-2.6c-0.2-1-0.8-1.8-1.6-2.2c-1.5-0.7-2.3-1.3-3.4-2.4c-0.2-0.2-0.5-0.5-0.7-0.7c0.8-0.8,1.6-1.5,2.4-2.4
		c0,0,0,0,0-0.1c0.7-0.8,1.2-1.3,1.2-1.3c0.6-0.6,0.9-1.5,0.9-2.3c-0.1-0.9-0.5-1.7-1.2-2.2l-2.6-2C23.2,4.2,22.5,4,21.9,4
		c-0.2,0-0.5,0-0.7,0.1c-0.9,0.2-1.6,0.8-2,1.6c-0.1,0.2-0.2,0.4-0.4,0.7V6.2c0-0.7,0.1-1.3,0.2-1.9l0-0.1c0-0.2,0-0.3,0-0.5
		C19,2,17.6,0.7,16,0.7L16,0.7z M16,6.7L16,6.7L16,6.7L16,6.7z"/>
</g>
<path d="M12.6,10.5c-0.2,0.5-0.2,0.5-0.5,1.6c-0.8,2.9-1.5,4.5-3,6.8C8,20.6,6.9,21.8,5.5,23c-0.8-0.9-1.2-1.3-2.3-2
	c1.4-1,2.4-2,3.5-3.4c1.4-1.9,2.2-3.6,2.9-5.9H6.5c-0.9,0-1.8,0-2.4,0.1V9c0.6,0.1,1.3,0.1,2.6,0.1h2.5c1.1,0,1.7,0,2.1-0.1
	L12.6,10.5z M24.5,9c0,0-0.5,0.5-1.3,1.4c-1.4,1.5-2.6,2.7-4.3,4.1c0.8,1.1,1.7,2.2,2.7,3.2c1.3,1.3,2.4,2.1,4.2,3
	c-0.8,0.8-1.3,1.4-2.1,2.6c-2-1.4-2.9-2.2-4.1-3.6c-1.6-1.8-2.8-3.9-3.8-6.3c0.1,2.4,0.1,3,0.1,3.7v5.7c0,1.1-0.2,1.6-0.6,1.9
	c-0.4,0.4-1.2,0.6-2.3,0.6c-0.9,0-2.2-0.1-3.1-0.1c-0.1-1.1-0.2-1.7-0.7-2.8c1.3,0.2,2.3,0.3,3.1,0.3c0.7,0,0.9-0.1,0.9-0.6V6.2
	c0-1,0-1.8-0.2-2.5h3c-0.1,0.8-0.2,1.5-0.2,2.5v1.7c0.3,1.5,0.6,2.4,1.6,4.3c2.3-2,3.8-3.7,4.5-5.2L24.5,9z"/>
</svg>
