<?xml version="1.0" encoding="utf-8"?>
<!-- Generator: Adobe Illustrator 23.0.3, SVG Export Plug-In . SVG Version: 6.00 Build 0)  -->
<svg version="1.1" id="レイヤー_1" xmlns="http://www.w3.org/2000/svg" xmlns:xlink="http://www.w3.org/1999/xlink" x="0px"
	 y="0px" viewBox="0 0 28.9 28.9" style="enable-background:new 0 0 28.9 28.9;" xml:space="preserve">
<style type="text/css">
	.st0{fill:#FFFFFF;}
</style>
<path class="st0" d="M27.3,17.2v-2.6c0,0,0-0.1,0-0.1c0.1-0.2,0.1-0.3,0.2-0.5c0.3-0.6,0.5-1.1,0.8-1.6c0.5-0.8,0.6-1.8,0.3-2.7
	c-0.3-0.9-1-1.6-1.9-1.9c-2.3-0.7-3.8-1.4-5.5-2.7c-1.4-1.1-2.2-1.9-3.1-3c-0.6-0.8-1.5-1.3-2.4-1.3h-3c-1,0-2,0.5-2.6,1.4
	C8.9,4.5,5.7,6.6,2,8C1.1,8.3,0.5,9,0.2,9.9c-0.3,0.9-0.2,1.8,0.4,2.6c0.5,0.8,0.6,0.9,1,1.9c0.1,0.1,0.1,0.3,0.2,0.4v2.3
	c0,0.9,0.4,1.7,1,2.3c0,0,0.1,0.1,0.1,0.1c-0.4,0.1-0.7,0.3-1,0.6c-0.6,0.6-1,1.4-1,2.2v2.8c0,0.9,0.4,1.8,1.1,2.3
	c0.5,0.4,1.2,0.7,1.9,0.7c0.2,0,0.4,0,0.6-0.1c0.7-0.1,1.4-0.1,2.4-0.1h15.3c0.9,0,1.8,0.1,2.6,0.2c0.1,0,0.2,0,0.3,0
	c0.7,0,1.4-0.3,2-0.8c0.6-0.6,1-1.4,1-2.2v-2.8c0-0.9-0.4-1.7-1-2.2c-0.2-0.2-0.5-0.4-0.8-0.5c0,0,0.1,0,0.1-0.1
	C26.9,18.9,27.3,18.1,27.3,17.2z"/>
<path d="M10.6,12.3c-1,0-1.7,0-2.4,0.1v-1.1c-1.4,0.8-2.3,1.3-3.9,2C3.8,12,3.6,11.7,3,10.8c4.5-1.6,8.1-4.2,9.8-7h3
	c1,1.4,2,2.4,3.7,3.7c2,1.5,3.8,2.4,6.4,3.2c-0.6,0.9-0.9,1.7-1.3,2.6c-1.9-0.8-2.7-1.2-4.2-2.1v1.2c-0.7-0.1-1.3-0.1-2.4-0.1h-2.4
	v2.3h6.1c1.2,0,2,0,2.6-0.1v2.7c-0.7-0.1-1.5-0.1-2.6-0.1h-6v5.3h6.5c1.2,0,2,0,2.8-0.1v2.8c-0.9-0.1-1.9-0.2-2.9-0.2H6.8
	c-1.1,0-2,0-3,0.2v-2.8c0.9,0.1,1.9,0.1,3,0.1h6V17H7.3c-1,0-1.9,0-2.6,0.1v-2.7c0.6,0.1,1.4,0.1,2.6,0.1H13v-2.2
	C13,12.3,10.6,12.3,10.6,12.3z M8.9,17.3c0.8,1.4,1.3,2.4,1.9,4l-2.4,1c-0.5-1.5-1.1-2.8-1.9-4L8.9,17.3z M10.6,10.1H18
	c0.2,0,0.2,0,0.6,0c-1.9-1.3-3.1-2.4-4.3-4c-1.2,1.6-2.2,2.6-4.2,4H10.6z M22.1,18.2c-0.3,0.6-0.3,0.6-1.2,2.3
	c-0.1,0.1-0.2,0.3-1,1.7l-2.3-0.8c0.7-1.2,1.3-2.5,1.9-4.1L22.1,18.2z"/>
</svg>
