<?xml version="1.0" encoding="UTF-8"?><svg id="_レイヤー_1" xmlns="http://www.w3.org/2000/svg" width="44" height="48" viewBox="0 0 44 48"><defs><style>.cls-1{fill:#fff;}.cls-2{fill:#333;}</style></defs><g id="bg"><path class="cls-1" d="M40,48H4c-2.21,0-4-1.79-4-4V4C0,1.79,1.79,0,4,0h29l11,11v33c0,2.21-1.79,4-4,4Z"/></g><g id="mov"><path class="cls-2" d="M30,18v2H14v-2h-6v22h6v-2h16v2h6v-22h-6ZM12.5,38h-2v-3h2v3ZM12.5,33h-2v-3h2v3ZM12.5,28h-2v-3h2v3ZM12.5,23h-2v-3h2v3ZM30,36H14v-14h16v14ZM33.5,38h-2v-3h2v3ZM33.5,33h-2v-3h2v3ZM33.5,28h-2v-3h2v3ZM33.5,23h-2v-3h2v3Z"/></g><g id="_ふち"><path class="cls-2" d="M31.76,3l9.24,9.24v31.76c0,.55-.45,1-1,1H4c-.55,0-1-.45-1-1V4c0-.55.45-1,1-1h27.76M33,0H4C1.79,0,0,1.79,0,4v40c0,2.21,1.79,4,4,4h36c2.21,0,4-1.79,4-4V11L33,0h0Z"/><path class="cls-2" d="M44,14h-10c-2.21,0-4-1.79-4-4V0l14,14Z"/></g></svg>