<?xml version="1.0" encoding="UTF-8"?><svg id="_レイヤー_1" xmlns="http://www.w3.org/2000/svg" width="44" height="48" viewBox="0 0 44 48"><defs><style>.cls-1{fill:#fff;}.cls-2{fill:#333;}</style></defs><g id="bg"><path class="cls-1" d="M40,48H4c-2.21,0-4-1.79-4-4V4C0,1.79,1.79,0,4,0h29l11,11v33c0,2.21-1.79,4-4,4Z"/></g><g id="P"><path class="cls-2" d="M16.1,35.47v-15.75h5.1c1.93,0,3.19.08,3.78.24.9.24,1.66.75,2.27,1.54.61.79.91,1.81.91,3.07,0,.97-.18,1.78-.53,2.44-.35.66-.8,1.18-1.34,1.55-.54.38-1.09.62-1.65.75-.76.15-1.86.23-3.3.23h-2.07v5.94h-3.18ZM19.28,22.39v4.47h1.74c1.25,0,2.09-.08,2.51-.25.42-.17.75-.42.99-.77s.36-.76.36-1.22c0-.57-.17-1.04-.5-1.42-.34-.37-.76-.6-1.28-.7-.38-.07-1.14-.11-2.29-.11h-1.54Z"/></g><g id="_ふち"><path class="cls-2" d="M31.76,3l9.24,9.24v31.76c0,.55-.45,1-1,1H4c-.55,0-1-.45-1-1V4c0-.55.45-1,1-1h27.76M33,0H4C1.79,0,0,1.79,0,4v40c0,2.21,1.79,4,4,4h36c2.21,0,4-1.79,4-4V11L33,0h0Z"/><path class="cls-2" d="M44,14h-10c-2.21,0-4-1.79-4-4V0l14,14Z"/></g></svg>