<?xml version="1.0" encoding="utf-8"?>
<!-- Generator: Adobe Illustrator 23.0.3, SVG Export Plug-In . SVG Version: 6.00 Build 0)  -->
<svg version="1.1" id="レイヤー_1" xmlns="http://www.w3.org/2000/svg" xmlns:xlink="http://www.w3.org/1999/xlink" x="0px"
	 y="0px" viewBox="0 0 28.9 28.9" style="enable-background:new 0 0 28.9 28.9;" xml:space="preserve">
<style type="text/css">
	.st0{fill:#FFFFFF;}
</style>
<path class="st0" d="M27.3,19.9c-0.6-0.5-1.3-0.8-2-0.8c-0.1,0-0.2,0-0.3,0c-0.7,0.1-1.8,0.1-3.1,0.1h-3.3v-2.7h1.8
	c1.2,0,2,0,2.8,0.1c0.1,0,0.2,0,0.3,0c0.7,0,1.4-0.3,2-0.8c0.6-0.6,1-1.4,1-2.2v-2.8c0-0.9-0.4-1.7-1-2.2c-0.6-0.5-1.3-0.8-2-0.8
	c-0.1,0-0.2,0-0.3,0C22.4,8,21.7,8,20.4,8h-2V6.6c0-0.9,0.1-1.5,0.2-2.1c0.2-0.9,0-1.8-0.6-2.5c-0.6-0.7-1.4-1.1-2.3-1.1h-3.1
	c-0.9,0-1.8,0.4-2.3,1.1C9.7,2.7,9.5,3.6,9.7,4.5c0.1,0.6,0.1,1.3,0.1,2.1V8H8.5C7.3,8,6.4,8,5.8,7.9c-0.1,0-0.2,0-0.4,0
	c-0.7,0-1.4,0.3-2,0.8c-0.6,0.6-1,1.4-1,2.2v2.8c0,0.9,0.4,1.7,1,2.2c0.6,0.5,1.3,0.8,2,0.8c0.1,0,0.2,0,0.3,0
	c0.7-0.1,1.5-0.1,2.8-0.1h1.3v2.7H7c-1.3,0-2.3,0-3.1-0.1c-0.1,0-0.2,0-0.3,0c-0.7,0-1.4,0.3-2,0.8c-0.6,0.6-1,1.4-1,2.2v2.9
	c0,0.9,0.4,1.8,1.1,2.3c0.5,0.4,1.2,0.7,1.9,0.7c0.2,0,0.4,0,0.7-0.1c0.6-0.1,1.6-0.1,2.7-0.1h14.9c1.3,0,2.1,0.1,3.1,0.2
	c0.1,0,0.2,0,0.3,0c0.7,0,1.5-0.3,2-0.8c0.6-0.6,1-1.4,1-2.2v-2.9C28.3,21.3,27.9,20.5,27.3,19.9z"/>
<path d="M12.8,6.7c0-1,0-1.9-0.2-2.8h3.1c-0.2,0.9-0.3,1.7-0.3,2.8V11h5c1.4,0,2.2,0,3.1-0.1v2.8c-0.9-0.1-1.8-0.1-3.1-0.1h-4.8v8.7
	h6.3c1.4,0,2.5,0,3.4-0.1V25c-1-0.1-2-0.2-3.4-0.2H7c-1.4,0-2.5,0-3.4,0.2v-2.9c0.9,0.1,2,0.1,3.4,0.1h5.8v-8.7H8.5
	c-1.3,0-2.2,0-3.1,0.1v-2.8C6.2,11,7.2,11,8.5,11h4.3V6.7z"/>
</svg>
