<?xml version="1.0" encoding="utf-8"?>
<!-- Generator: Adobe Illustrator 23.0.3, SVG Export Plug-In . SVG Version: 6.00 Build 0)  -->
<svg version="1.1" id="レイヤー_1" xmlns="http://www.w3.org/2000/svg" xmlns:xlink="http://www.w3.org/1999/xlink" x="0px"
	 y="0px" viewBox="0 0 28.9 28.9" style="enable-background:new 0 0 28.9 28.9;" xml:space="preserve">
<style type="text/css">
	.st0{fill:#FFFFFF;}
</style>
<path class="st0" d="M28.8,19.2c-0.1-0.9-0.7-1.7-1.5-2.1c-2-1.1-3.6-2.3-4.9-3.7c0.6,0,1.4,0.1,2.2,0.2c0.1,0,0.2,0,0.4,0
	c0.7,0,1.4-0.3,2-0.8c0.6-0.6,1-1.4,1-2.2V7.8c0-0.9-0.4-1.8-1.2-2.4c-0.5-0.4-1.2-0.6-1.8-0.6c-0.2,0-0.5,0-0.7,0.1
	C23.7,5,23,5,22,5h-3.5c0-0.2,0-0.4,0.1-0.6c0-0.1,0-0.2,0-0.4c0-0.2,0-0.3,0-0.5c0-1.7-1.3-3-3-3h0h-3.1c-1,0-1.9,0.5-2.4,1.2
	C9.6,2.5,9.5,3.5,9.8,4.4c0,0.1,0,0.2,0,0.5H6.7c-1.2,0-1.7,0-2.2-0.1C4.2,4.7,4,4.7,3.8,4.7c-0.7,0-1.3,0.2-1.9,0.7
	C1.2,5.9,0.8,6.7,0.8,7.7v3c0,0.9,0.4,1.8,1.1,2.3c0.5,0.4,1.2,0.7,1.9,0.7c0.2,0,0.4,0,0.7-0.1c0.5-0.1,1.2-0.1,2-0.1
	c-1.4,1.5-3.1,2.9-4.9,3.9c-0.8,0.5-1.4,1.4-1.5,2.3c-0.1,1,0.3,1.9,1,2.6c0.3,0.3,0.6,0.6,1.1,1.6c0.4,0.7,1.1,1.3,1.9,1.5
	c0.2,0.1,0.5,0.1,0.7,0.1c0.6,0,1.2-0.2,1.7-0.5C7.8,24,9,23.1,10,22.2v0.3c0,1-0.1,1.8-0.2,2.7c-0.1,0.8,0.2,1.7,0.7,2.3
	c0.6,0.6,1.4,1,2.2,1h3.1c0.9,0,1.8-0.4,2.3-1.1s0.8-1.6,0.6-2.5c-0.1-0.6-0.1-1.3-0.1-2.3v-0.6c1,0.9,2.1,1.7,3.6,2.8
	c0.5,0.3,1.1,0.5,1.7,0.5c0.2,0,0.4,0,0.7-0.1c0.8-0.2,1.5-0.7,1.9-1.4c0.6-1.1,0.7-1.2,1.4-2C28.6,21,28.9,20.1,28.8,19.2z"/>
<path d="M16.5,10.4c2.1,4,5,6.9,9.3,9.3c-0.9,1-1.1,1.3-1.8,2.5c-2.2-1.5-3.5-2.6-4.6-3.8c-1.6-1.7-2.7-3.2-3.9-5.4
	c0.1,1.1,0.2,2,0.2,2.7v6.8c0,1.2,0,2.1,0.2,3h-3.1c0.1-0.9,0.2-1.8,0.2-3v-6.7c0-0.6,0-1.7,0.1-2.6c-1.8,3.7-4.4,6.6-8.2,9.2
	c-0.6-1.1-1.1-1.8-1.8-2.4c4-2.3,7.3-5.8,9-9.5H6.7c-1.1,0-2,0-2.9,0.2v-3c0.9,0.2,1.7,0.2,2.9,0.2h6.1V5.7c0-0.9,0-1.6-0.2-2.2h3.1
	c-0.1,0.8-0.2,1.3-0.2,2.2V8H22c1.2,0,2.1,0,2.9-0.2v2.8c-0.8-0.1-1.8-0.2-2.8-0.2C22.1,10.4,16.5,10.4,16.5,10.4z"/>
</svg>
