<svg width="93" height="83" viewBox="0 0 93 83" fill="none" xmlns="http://www.w3.org/2000/svg">
<mask id="mask0_55_166" style="mask-type:alpha" maskUnits="userSpaceOnUse" x="0" y="0" width="93" height="83">
<rect x="0.5" y="0.5" width="92" height="82" fill="white" stroke="#D9D9D9"/>
</mask>
<g mask="url(#mask0_55_166)">
<path d="M62.9633 73.8775C62.273 73.8775 61.6031 73.821 60.9687 73.7133C56.4367 72.949 53.8332 70.4816 53.549 70.1995L57.3451 66.2856C57.3451 66.2856 59.0098 67.8296 61.862 68.3067C64.6786 68.7837 68.8656 67.4141 71.4133 63.295C71.4386 63.2539 71.464 63.2129 71.4945 63.1719C74.0625 59.4734 75.5901 49.25 74.8948 40.3859C74.2452 32.081 71.1595 21.7447 64.4553 17.6564C59.634 14.7171 55.0106 16.533 54.163 17.3076L52.0011 20.4162L47.5654 17.2614L49.7477 14.1272C51.7625 11.1571 59.8877 8.47431 67.2568 12.9679C71.2204 15.384 74.4126 19.3748 76.7421 24.8277C79.1426 30.4498 80.0054 36.1591 80.2998 39.9602C81.0001 48.896 79.7364 60.7763 75.9758 66.2702C72.6161 71.6563 67.3532 73.8826 62.9683 73.8826L62.9633 73.8775Z" fill="#2DE693" stroke="#654214" stroke-width="2" stroke-linejoin="round"/>
<path d="M34.4514 15.4609L30.2239 13.1936C31.0105 11.6957 35.2025 4.2731 40.6836 5.05794C45.9871 5.81713 47.6365 11.3059 46.926 16.4099L42.1909 15.7328C42.2671 15.1736 42.871 10.2492 40.0188 9.84391C38.8769 9.67976 36.3089 11.9471 34.4514 15.4609Z" fill="#2DE693" stroke="#654214" stroke-width="2" stroke-linejoin="round"/>
<path d="M65.2827 27.8337C64.4047 23.2272 61.6388 21.1856 58.9439 20.0776C55.5081 18.3848 32.5941 12.2395 28.5645 12.0548C21.4441 11.6957 11.1265 17.9796 11.7811 34.7843C11.9791 43.9049 11.7152 54.3232 11.7659 66.1881C11.7659 66.8447 12.0907 67.6706 13.126 68.0451C17.0643 69.6763 42.1759 79.1969 46.1649 78.9969C50.3417 78.7866 58.3705 73.7698 59.5885 72.8464C60.8065 71.9231 63.0446 70.5894 63.5318 69.0453C64.9376 54.0154 66.719 35.0716 65.2827 27.8337Z" fill="#2DE693" stroke="#654214" stroke-width="2" stroke-linejoin="round"/>
<path d="M46.1646 78.7198C50.3414 78.5095 57.0355 74.3853 58.5276 73.308C60.0196 72.2308 63.0393 70.3534 63.5316 68.8145C64.9374 53.8564 65.6784 41.6478 65.8052 34.4406C65.8103 25.8125 63.7447 22.1654 60.385 21.3292C56.9188 20.7188 53.4728 22.7347 51.052 25.1662C48.6311 27.5977 46.6874 30.9832 46.3423 39.5446C45.8906 50.7016 46.1646 78.7198 46.1646 78.7198Z" fill="#FFF56B" stroke="#654214" stroke-width="2" stroke-linejoin="round"/>
<path d="M20.2512 66.2241C21.6219 66.2241 22.733 65.101 22.733 63.7157C22.733 62.3303 21.6219 61.2073 20.2512 61.2073C18.8806 61.2073 17.7695 62.3303 17.7695 63.7157C17.7695 65.101 18.8806 66.2241 20.2512 66.2241Z" fill="#FFF56B" stroke="#654214" stroke-width="2"/>
<path d="M35.8064 71.2408C37.177 71.2408 38.2881 70.1178 38.2881 68.7324C38.2881 67.347 37.177 66.224 35.8064 66.224C34.4358 66.224 33.3247 67.347 33.3247 68.7324C33.3247 70.1178 34.4358 71.2408 35.8064 71.2408Z" fill="#FFF56B" stroke="#654214" stroke-width="2"/>
<path d="M61.7501 42.6224C58.6695 43.91 54.5638 44.6435 50.1738 44.8333" stroke="#654214" stroke-width="2" stroke-linecap="round" stroke-linejoin="round"/>
<path d="M56.9188 49.3218C56.8173 54.2052 56.2286 62.1459 55.3506 68.8042" stroke="#654214" stroke-width="2" stroke-linecap="round" stroke-linejoin="round"/>
</g>
</svg>
