<svg width="93" height="83" viewBox="0 0 93 83" fill="none" xmlns="http://www.w3.org/2000/svg">
<mask id="mask0_46_289" style="mask-type:alpha" maskUnits="userSpaceOnUse" x="0" y="0" width="93" height="83">
<rect width="93" height="83" fill="#D9D9D9"/>
</mask>
<g mask="url(#mask0_46_289)">
<path d="M69.6583 56.2914L81.3204 62.6702C80.9235 67.3291 74.8729 74.186 70.5086 75.1647L63.1384 63.8249C65.8757 62.0543 68.0029 59.478 69.6583 56.2914Z" fill="white" stroke="#654214" stroke-width="2" stroke-linejoin="round"/>
<path d="M36.9961 61.9235C46.7898 59.3976 54.7643 61.0213 63.1383 63.8249C65.887 62.0406 68.0101 59.4647 69.6583 56.2914C64.9214 48.1739 63.6314 42.3218 63.8892 25.9884L36.9961 61.9235Z" fill="white" stroke="#654214" stroke-width="2" stroke-linejoin="round"/>
<path d="M61.4731 16.3234C63.5108 18.6669 65.7331 26.2403 61.3958 31.6923C58.9662 34.7442 55.4987 39.9372 52.3619 44.0128C49.0102 48.3656 48.5954 51.7051 43.177 56.9605C38.624 61.3731 33.0998 64.6816 29.5813 62.1219C24.8762 59.1632 23.8363 52.4252 26.1788 40.7685L16.5328 32.3695C29.661 15.3214 53.1334 5.97968 61.4731 16.3234Z" fill="white" stroke="#654214" stroke-width="2" stroke-linejoin="round"/>
<path d="M43.7592 22.8152C43.7911 19.1517 40.8816 16.149 37.257 16.1168C37.0169 16.1147 36.7817 16.1242 36.5511 16.1509C37.3479 12.705 35.3257 9.20956 31.9247 8.25222C28.4303 7.26708 24.8087 9.33585 23.8396 12.8681C23.7976 13.0239 23.7664 13.186 23.7355 13.3424C23.6064 13.2505 23.4718 13.1583 23.3312 13.0714C20.2087 11.209 16.1845 12.2557 14.3419 15.4119C12.4993 18.568 13.5349 22.6354 16.6575 24.4978C16.7983 24.5791 16.9395 24.6547 17.0865 24.725C16.9634 24.8311 16.8406 24.9316 16.728 25.0495C14.1408 27.6164 14.102 31.8161 16.6413 34.4367C19.1174 36.986 23.1182 37.0844 25.7173 34.7102C25.8118 34.9244 25.9118 35.139 26.0289 35.3488C27.8105 38.5428 31.8169 39.6694 34.9772 37.863C37.9588 36.1596 39.1162 32.4514 37.7317 29.3529C41.0822 29.0819 43.7386 26.2704 43.7709 22.8046L43.7592 22.8152Z" fill="#2DE693" stroke="#654214" stroke-width="2" stroke-linejoin="round"/>
<path d="M27.4618 28.6401C30.3169 28.799 32.7588 26.5884 32.916 23.7027C33.0732 20.8169 30.8862 18.3488 28.0311 18.1899C25.1761 18.031 22.7341 20.2415 22.5769 23.1273C22.4197 26.013 24.6068 28.4812 27.4618 28.6401Z" fill="#FFF56B" stroke="#654214" stroke-width="2"/>
<path d="M60.6895 17.9397C60.5027 17.8379 60.3172 17.7502 60.1274 17.6676C62.1629 15.3246 62.0275 11.7584 59.7744 9.58633C57.4603 7.35818 53.7962 7.44081 51.5918 9.77982C51.493 9.88321 51.4044 9.99518 51.3157 10.1071C51.2532 9.98014 51.1861 9.85356 51.1143 9.72738C49.4519 6.96829 45.8924 6.09506 43.1627 7.7753C40.4329 9.45553 39.569 13.0533 41.2313 15.8124C41.3078 15.9382 41.3881 16.0541 41.473 16.1697C41.3352 16.2008 41.197 16.2272 41.06 16.2677C37.9921 17.178 36.2365 20.4287 37.1366 23.5249C38.0113 26.543 41.0855 28.3016 44.0782 27.5495C44.0632 27.7543 44.0536 27.9682 44.0579 28.1808C44.1316 31.4117 46.7833 33.9697 49.9794 33.8906C52.9981 33.8177 55.4224 31.4214 55.6178 28.4317C58.3345 29.6303 61.5521 28.5554 63.0013 25.8761C64.5355 23.0426 63.5017 19.4848 60.6988 17.9389L60.6895 17.9397Z" fill="#FFF127" stroke="#654214" stroke-width="2" stroke-linejoin="round"/>
<path d="M50.6963 24.2143C53.2064 23.9923 55.0632 21.7557 54.8436 19.2186C54.624 16.6815 52.4112 14.8048 49.9011 15.0267C47.391 15.2487 45.5342 17.4853 45.7538 20.0224C45.9734 22.5595 48.1863 24.4362 50.6963 24.2143Z" fill="#2DE693" stroke="#654214" stroke-width="2"/>
<path d="M69.6579 56.2914C69.6579 56.2914 69.0105 51.2802 71.063 46.8728C73.1151 42.4613 76.4118 43.6687 77.3363 45.1536C78.5763 46.9918 78.7561 49.7959 76.2987 52.3802C73.8413 54.9645 71.7714 55.7827 69.6625 56.2952L69.6579 56.2914Z" stroke="#2DE693" stroke-width="3" stroke-linecap="round" stroke-linejoin="round"/>
<path d="M69.125 54.8902C68.3509 55.1865 67.9623 56.054 68.2571 56.8277C68.5518 57.6015 69.4183 57.9886 70.1924 57.6923L69.6587 56.2913L69.125 54.8902ZM80.6444 57.859C81.3862 58.2263 82.2862 57.9219 82.6547 57.1791C83.0232 56.4364 82.7206 55.5366 81.9788 55.1694L81.3116 56.5142L80.6444 57.859ZM69.6587 56.2913L70.1924 57.6923C74.3028 56.1191 77.9539 56.5271 80.6444 57.859L81.3116 56.5142L81.9788 55.1694C78.5154 53.4548 73.9922 53.0274 69.125 54.8902L69.6587 56.2913Z" fill="#2DE693"/>
<path d="M61.5344 62.8449C60.7127 63.3552 60.4589 64.4344 60.9675 65.2554C61.476 66.0764 62.5544 66.3283 63.3761 65.8181L62.4553 64.3315L61.5344 62.8449ZM71.2105 57.0962C71.6564 56.2378 71.3228 55.1816 70.4655 54.7372C69.6081 54.2927 68.5517 54.6283 68.1058 55.4868L69.6582 56.2915L71.2105 57.0962ZM62.4553 64.3315L63.3761 65.8181C66.7178 63.743 69.445 60.4954 71.2105 57.0962L69.6582 56.2915L68.1058 55.4868C66.575 58.4341 64.2455 61.1614 61.5344 62.8449L62.4553 64.3315Z" fill="#2DE693"/>
<path d="M51.4709 42.8171C54.5798 42.5421 56.8795 39.7719 56.6075 36.6296C56.3356 33.4872 53.5948 31.1627 50.4859 31.4376C47.377 31.7126 45.0772 34.4828 45.3492 37.6251C45.6212 40.7675 48.3619 43.092 51.4709 42.8171Z" fill="#2DE693" stroke="#654214" stroke-width="2" stroke-linecap="round" stroke-linejoin="round"/>
<path d="M53.7633 32.6317C54.1951 32.2866 54.266 31.6571 53.9217 31.2259C53.5775 30.7946 52.9484 30.7248 52.5166 31.07L53.14 31.8509L53.7633 32.6317ZM51.3714 43.3663C51.7295 43.7861 52.3605 43.8354 52.7809 43.4764C53.2012 43.1174 53.2516 42.4861 52.8935 42.0663L52.1324 42.7163L51.3714 43.3663ZM53.14 31.8509L52.5166 31.07C49.1401 33.7693 47.898 39.2946 51.3714 43.3663L52.1324 42.7163L52.8935 42.0663C50.2406 38.9563 51.1607 34.7123 53.7633 32.6317L53.14 31.8509Z" fill="#654214"/>
<path d="M45.1257 35.5806C44.5885 35.7095 44.2566 36.2493 44.3844 36.7865C44.5122 37.3236 45.0513 37.6546 45.5885 37.5258L45.3571 36.5532L45.1257 35.5806ZM50.0856 37.6963C50.6169 37.8458 51.1696 37.5359 51.32 37.0041C51.4704 36.4724 51.1616 35.9201 50.6303 35.7706L50.3579 36.7334L50.0856 37.6963ZM45.3571 36.5532L45.5885 37.5258C45.9862 37.4304 46.7928 37.3769 47.7206 37.4061C48.638 37.4348 49.5295 37.5398 50.0856 37.6963L50.3579 36.7334L50.6303 35.7706C49.8467 35.5501 48.7693 35.4375 47.7869 35.4067C46.815 35.3762 45.791 35.4211 45.1257 35.5806L45.3571 36.5532Z" fill="#654214"/>
<path d="M12.6089 45.305C15.501 45.0493 17.6405 42.4722 17.3875 39.5489C17.1344 36.6256 14.5847 34.4632 11.6926 34.7189C8.80038 34.9747 6.66093 37.5518 6.91397 40.4751C7.167 43.3983 9.71669 45.5608 12.6089 45.305Z" fill="#FFF127" stroke="#654214" stroke-width="2" stroke-miterlimit="10"/>
<path d="M44.9375 45.2423C44.2653 41.568 40.7698 39.1402 37.1346 39.8196C36.8932 39.863 36.664 39.9218 36.4358 39.9916C36.5653 36.3896 33.8721 33.285 30.279 33.0025C26.592 32.7063 23.368 35.4915 23.0798 39.2121C23.067 39.3785 23.065 39.5439 23.0683 39.7088C22.9211 39.6447 22.768 39.5756 22.6159 39.5175C19.1297 38.2673 15.3069 40.1143 14.0695 43.6325C12.8322 47.1507 14.6599 51.0201 18.1407 52.2708C18.2983 52.3284 18.4544 52.3697 18.6105 52.411C18.5074 52.5412 18.4037 52.666 18.3124 52.8063C16.2195 55.8825 16.9877 60.099 20.0365 62.2138C23.0045 64.2753 27.0309 63.5833 29.1732 60.701C29.3101 60.8982 29.4525 61.0948 29.6101 61.2791C32.0084 64.1234 36.2382 64.4598 39.0463 62.0307C41.7026 59.7362 42.1463 55.7981 40.1583 52.9726C43.4611 52.0417 45.5691 48.6999 44.9365 45.2314L44.9375 45.2423Z" fill="#FFF127" stroke="#654214" stroke-width="2" stroke-linejoin="round"/>
<path d="M29.4918 54.3123C32.3944 54.0556 34.5415 51.4692 34.2876 48.5355C34.0336 45.6017 31.4748 43.4315 28.5722 43.6881C25.6696 43.9448 23.5225 46.5312 23.7765 49.465C24.0304 52.3987 26.5892 54.569 29.4918 54.3123Z" fill="#2DE693" stroke="#654214" stroke-width="2"/>
</g>
</svg>
