<svg width="22" height="22" viewBox="0 0 22 22" fill="none" xmlns="http://www.w3.org/2000/svg">
<path d="M11.5981 1H10.396C9.64118 1 9.0293 1.61187 9.0293 2.36666V3.56881C9.0293 4.32359 9.64118 4.93546 10.396 4.93546H11.5981C12.3529 4.93546 12.9648 4.32359 12.9648 3.56881V2.36666C12.9648 1.61187 12.3529 1 11.5981 1Z" fill="#654214"/>
<path d="M4.10668 17.0646H2.90451C2.14972 17.0646 1.53784 17.6764 1.53784 18.4312V19.6334C1.53784 20.3882 2.14972 21 2.90451 21H4.10668C4.86147 21 5.47335 20.3882 5.47335 19.6334V18.4312C5.47335 17.6764 4.86147 17.0646 4.10668 17.0646Z" fill="#654214"/>
<path d="M11.5981 17.0646H10.396C9.64118 17.0646 9.0293 17.6764 9.0293 18.4312V19.6334C9.0293 20.3882 9.64118 21 10.396 21H11.5981C12.3529 21 12.9648 20.3882 12.9648 19.6334V18.4312C12.9648 17.6764 12.3529 17.0646 11.5981 17.0646Z" fill="#654214"/>
<path d="M19.0952 17.0646H17.893C17.1382 17.0646 16.5264 17.6764 16.5264 18.4312V19.6334C16.5264 20.3882 17.1382 21 17.893 21H19.0952C19.85 21 20.4619 20.3882 20.4619 19.6334V18.4312C20.4619 17.6764 19.85 17.0646 19.0952 17.0646Z" fill="#654214"/>
<path d="M10.9971 2.96765V19.0322" stroke="#654214" stroke-width="1.8" stroke-miterlimit="10"/>
<path d="M3.50562 19.0324V10.9274H18.4884V19.0324" stroke="#654214" stroke-width="1.8" stroke-linejoin="round"/>
</svg>
