<svg width="93" height="83" viewBox="0 0 93 83" fill="none" xmlns="http://www.w3.org/2000/svg">
<mask id="mask0_48_317" style="mask-type:alpha" maskUnits="userSpaceOnUse" x="0" y="0" width="93" height="83">
<rect x="0.5" y="0.5" width="92" height="82" fill="#D9D9D9" stroke="#D9D9D9"/>
</mask>
<g mask="url(#mask0_48_317)">
<path d="M23.7532 20.5035C24.3096 20.5035 24.7649 20.9635 24.7649 21.526C24.765 22.8502 25.913 24.0112 27.2229 24.0114C27.7793 24.0114 28.2346 24.4713 28.2346 25.0338C28.2346 25.5963 27.7793 26.0563 27.2229 26.0563C25.9129 26.0564 24.7649 27.2173 24.7649 28.5416C24.7649 29.1041 24.3096 29.5641 23.7532 29.5641C23.1968 29.5641 22.7415 29.1041 22.7415 28.5416C22.7414 27.2173 21.5934 26.0564 20.2834 26.0563C19.7271 26.0563 19.2718 25.5963 19.2717 25.0338C19.2717 24.4713 19.727 24.0114 20.2834 24.0114C21.5934 24.0112 22.7413 22.8502 22.7415 21.526C22.7415 20.9635 23.1968 20.5035 23.7532 20.5035Z" fill="#FFE633"/>
<path d="M15.9893 7.00311C16.5455 7.00323 17.0008 7.46327 17.001 8.02557C17.001 10.5517 19.1104 12.6896 21.6143 12.6896C22.1705 12.6898 22.6259 13.1498 22.626 13.7121C22.626 14.2745 22.1705 14.7344 21.6143 14.7346C19.1155 14.7346 17.001 16.8674 17.001 19.3986C17.0009 19.961 16.5455 20.421 15.9893 20.4211C15.4329 20.4211 14.9776 19.9611 14.9775 19.3986C14.9775 16.8725 12.8681 14.7346 10.3643 14.7346C9.80784 14.7346 9.35254 14.2746 9.35254 13.7121C9.35258 13.1496 9.80787 12.6896 10.3643 12.6896C12.863 12.6896 14.9775 10.5568 14.9775 8.02557C14.9777 7.4632 15.4329 7.00311 15.9893 7.00311Z" fill="#FFE633"/>
<path d="M74.762 12.715C75.3181 12.7153 75.7735 13.1753 75.7737 13.7375C75.7737 17.4039 78.8384 20.503 82.4651 20.5031C83.0214 20.5031 83.4767 20.9632 83.4768 21.5256C83.4768 22.0881 83.0215 22.549 82.4651 22.549C78.8385 22.5492 75.7738 25.6474 75.7737 29.3137C75.7737 29.876 75.3182 30.3359 74.762 30.3361C74.2055 30.3361 73.7502 29.8762 73.7502 29.3137C73.7501 25.6473 70.6846 22.5491 67.0579 22.549C66.5014 22.549 66.0461 22.0881 66.0461 21.5256C66.0463 20.9632 66.5015 20.5031 67.0579 20.5031C70.6846 20.503 73.7502 17.4039 73.7502 13.7375C73.7504 13.1751 74.2056 12.715 74.762 12.715Z" fill="#FFE633"/>
<path d="M47.5882 28.4957C33.521 28.4957 22.1145 40.0269 22.1145 54.2478C22.1145 68.4688 33.521 80 47.5882 80C61.6553 80 73.0618 68.4688 73.0618 54.2478C73.0618 40.0269 61.6553 28.4957 47.5882 28.4957ZM47.5882 74.5847C36.4953 74.5847 27.4713 65.462 27.4713 54.2478C27.4713 43.0337 36.4953 33.911 47.5882 33.911C58.681 33.911 67.7051 43.0337 67.7051 54.2478C67.7051 65.462 58.681 74.5847 47.5882 74.5847Z" fill="white" stroke="#654214" stroke-width="2" stroke-miterlimit="10"/>
<path d="M46.1719 25.4252C46.698 25.3689 47.2342 25.3383 47.7754 25.3383C48.3166 25.3383 48.8528 25.3689 49.3789 25.4252L61.7667 13.5974C62.0753 13.3059 62.1258 12.8303 61.8982 12.4775L56.9259 4.79175C56.764 4.54118 56.4909 4.39288 56.1975 4.39288L39.3584 4.39288C39.065 4.39288 38.7918 4.54118 38.63 4.79175L33.6577 12.4775C33.425 12.8355 33.4806 13.3059 33.7892 13.5974L46.177 25.4252L46.1719 25.4252Z" fill="#52D186" stroke="#654214" stroke-width="2" stroke-linejoin="round"/>
<path d="M55.6548 12.411L58.1182 12.411" stroke="#FFF56B" stroke-width="1.5" stroke-linecap="round" stroke-linejoin="round"/>
<path d="M49.7991 12.411L45.7524 12.411" stroke="white" stroke-width="1.5" stroke-linecap="round" stroke-linejoin="round"/>
<path d="M37.6353 12.411L40.0734 12.411" stroke="#FFF56B" stroke-width="1.5" stroke-linecap="round" stroke-linejoin="round"/>
<path d="M52.5591 10.1438L49.9338 7.10626" stroke="#FFF56B" stroke-width="1.5" stroke-linecap="round" stroke-linejoin="round"/>
<path d="M42.8606 10.3227L45.6123 7.10626" stroke="white" stroke-width="1.5" stroke-linecap="round" stroke-linejoin="round"/>
<path d="M46.3661 21.5695L43.584 16.0979" stroke="#FFF56B" stroke-width="1.5" stroke-linecap="round" stroke-linejoin="round"/>
<path d="M51.8054 16.0059L49.1194 21.5695" stroke="white" stroke-width="1.5" stroke-linecap="round" stroke-linejoin="round"/>
</g>
</svg>
