<svg width="52" height="52" viewBox="0 0 52 52" fill="none" xmlns="http://www.w3.org/2000/svg">
<mask id="mask0_124_182" style="mask-type:alpha" maskUnits="userSpaceOnUse" x="0" y="0" width="52" height="52">
<rect width="52" height="52" fill="#D9D9D9"/>
</mask>
<g mask="url(#mask0_124_182)">
<path d="M39.88 7.34239L34.69 4.70239V4.54239V4.05239C34.69 3.37239 34.37 2.76239 33.81 2.37239C33.25 1.98239 32.57 1.89239 31.93 2.13239L24.61 4.84239L18.08 7.26239L9.13 10.5724C9.05 10.6024 9 10.6824 9 10.7624V44.7424" fill="white"/>
<path d="M39.88 7.34239L34.69 4.70239V4.54239V4.05239C34.69 3.37239 34.37 2.76239 33.81 2.37239C33.25 1.98239 32.57 1.89239 31.93 2.13239L24.61 4.84239L18.08 7.26239L9.13 10.5724C9.05 10.6024 9 10.6824 9 10.7624V44.7424" stroke="#654214" stroke-width="2" stroke-linecap="round" stroke-linejoin="round"/>
<path d="M18.22 9.94238L11.23 12.5424" stroke="#654214" stroke-width="2" stroke-linecap="round" stroke-linejoin="round"/>
<path d="M18.1999 49.7725C18.1999 49.7725 18.2499 49.7725 18.2699 49.7625L42.3399 40.8525C43.1399 40.5525 43.6799 39.7825 43.6799 38.9325V8.88247C43.6799 8.20247 43.3599 7.59247 42.7999 7.20247C42.2399 6.81247 41.5499 6.72247 40.9199 6.96247L18.1299 15.3925" fill="#FFFF5A"/>
<path d="M18.1999 49.7725C18.1999 49.7725 18.2499 49.7725 18.2699 49.7625L42.3399 40.8525C43.1399 40.5525 43.6799 39.7825 43.6799 38.9325V8.88247C43.6799 8.20247 43.3599 7.59247 42.7999 7.20247C42.2399 6.81247 41.5499 6.72247 40.9199 6.96247L18.1299 15.3925" stroke="#654214" stroke-width="2" stroke-miterlimit="10" stroke-linecap="round"/>
<path d="M18.22 11.9825L24.6 9.56245V2.86245C24.6 2.67245 24.37 2.58245 24.24 2.72245L21.41 5.80245L18.49 4.81245C18.36 4.76245 18.22 4.86245 18.22 5.01245V11.9924V11.9825Z" fill="white" stroke="#654214" stroke-width="2" stroke-linecap="round" stroke-linejoin="round"/>
<path d="M18.23 15.3824C14.3 14.7824 11.32 13.1924 9.37 10.6424C9.32 10.5724 9.22 10.5424 9.14 10.5724C9.06 10.6024 9 10.6824 9 10.7724V44.7524C9 44.7524 9.01 44.8324 9.03 44.8624C11.01 48.0424 14 49.6424 18.19 49.7724C18.24 49.7724 18.3 49.7524 18.33 49.7124C18.37 49.6724 18.39 49.6224 18.39 49.5624V15.5824C18.39 15.4824 18.32 15.3924 18.21 15.3824H18.23Z" fill="#FFFF5A" stroke="#654214" stroke-width="2" stroke-linecap="round" stroke-linejoin="round"/>
<path d="M34.6801 4.71229L34.4701 4.60229C34.0401 4.37229 33.5201 4.33229 33.0601 4.50229L24.6001 7.57229" fill="white"/>
<path d="M34.6801 4.71229L34.4701 4.60229C34.0401 4.37229 33.5201 4.33229 33.0601 4.50229L24.6001 7.57229" stroke="#654214" stroke-width="2" stroke-linecap="round" stroke-linejoin="round"/>
</g>
</svg>
