<svg width="93" height="83" viewBox="0 0 93 83" fill="none" xmlns="http://www.w3.org/2000/svg">
<mask id="mask0_61_236" style="mask-type:alpha" maskUnits="userSpaceOnUse" x="0" y="0" width="93" height="83">
<rect x="0.5" y="0.5" width="92" height="82" fill="white" stroke="#D9D9D9"/>
</mask>
<g mask="url(#mask0_61_236)">
<path d="M70.2934 5.8938H17.8086V71.1401H70.2934V5.8938Z" fill="#2DE693" stroke="#654214" stroke-width="2" stroke-linejoin="round"/>
<path d="M63.5317 12.7326H24.5747V64.3056H63.5317V12.7326Z" stroke="#654214" stroke-width="2" stroke-linejoin="round"/>
<path d="M64.3089 12H23.7451V65H64.3089V12Z" fill="white" stroke="#654214" stroke-width="2" stroke-linejoin="round"/>
<path d="M17.8086 37.0407C19.367 36.4511 24.6811 34.1614 31.7197 28.1059C40.0612 20.9314 43.9786 12.0569 44.1404 11.6824L38.9328 8.90216C38.8988 8.97963 35.454 16.7825 28.177 23.0446C23.6464 26.9396 19.9589 29.0786 17.8086 30.1459V37.0407Z" fill="#FFF56B" stroke="#654214" stroke-width="2" stroke-linejoin="round"/>
<path d="M70.2933 37.0407C68.7348 36.4511 63.4207 34.1614 56.3822 28.1059C48.0406 20.9314 44.1232 12.0569 43.9614 11.6824L49.169 8.90216C49.2031 8.97963 52.6479 16.7825 59.9249 23.0446C64.4725 26.9568 68.1727 29.1001 70.3188 30.1588L70.289 37.0364L70.2933 37.0407Z" fill="#FFF56B" stroke="#654214" stroke-width="2" stroke-linejoin="round"/>
<path d="M44.4473 12.2318C39.4824 12.7999 34.6239 13.7081 29.9018 14.9303C28.6116 15.266 27.3214 14.3536 27.2107 13.0065C27.0361 10.7728 26.8615 8.53914 26.6869 6.30114C26.5762 4.95403 27.8451 3.83503 29.3099 4.0201C34.6112 4.6872 39.806 5.71581 44.8475 7.08013C44.7155 8.79737 44.5793 10.5146 44.4473 12.2275V12.2318Z" fill="#FFF56B" stroke="#654214" stroke-width="2" stroke-linejoin="round"/>
<path d="M43.8168 12.2318C48.7817 12.7999 53.6401 13.7081 58.3623 14.9303C59.6525 15.266 60.9427 14.3536 61.0534 13.0065C61.228 10.7728 61.4025 8.53914 61.5771 6.30114C61.6878 4.95403 60.4189 3.83503 58.9542 4.0201C53.6529 4.6872 48.458 5.71581 43.4165 7.08013C43.5485 8.79737 43.6848 10.5146 43.8168 12.2275V12.2318Z" fill="#FFF56B" stroke="#654214" stroke-width="2" stroke-linejoin="round"/>
<path d="M47.4149 13.2432L44.7834 13.0323C44.4045 13.0022 44.0255 13.0022 43.6508 13.0323L41.0193 13.2432C40.6999 13.2432 40.4147 13.1141 40.206 12.9032C39.9974 12.6923 39.8696 12.404 39.8696 12.0812V6.32695C39.8696 6.00417 39.9974 5.71581 40.206 5.50492C40.4147 5.29403 40.6999 5.16492 41.0193 5.16492L43.6508 5.37581C44.0297 5.40593 44.4087 5.40593 44.7834 5.37581L47.4149 5.16492C47.7343 5.16492 48.0196 5.29403 48.2282 5.50492C48.4368 5.71581 48.5646 6.00417 48.5646 6.32695V12.0769C48.5646 12.3997 48.4368 12.688 48.2282 12.8989C48.0196 13.1098 47.7343 13.2389 47.4149 13.2389V13.2432Z" fill="#FFF56B" stroke="#654214" stroke-width="2" stroke-linejoin="round"/>
<path d="M80.4493 53.6879C79.6743 51.7469 77.3579 50.9851 75.0671 51.9233C71.5755 53.3479 65.1501 58.8224 63.4852 60.2685C64.0387 58.1252 66.0911 49.8876 65.8271 46.0916C65.7419 44.878 65.2906 43.7891 64.5582 43.0316C63.8301 42.2827 62.889 41.9083 61.9012 41.9772C60.9133 42.046 60.0319 42.5496 59.4145 43.3974C58.7928 44.2496 58.4947 45.3901 58.5799 46.6081C58.8439 50.4041 62.0076 58.2715 62.8507 60.3158C61.0027 59.1194 53.8875 54.6046 50.2341 53.6836C49.0631 53.391 47.9049 53.4856 46.9639 53.9591C46.0314 54.4282 45.3884 55.2201 45.15 56.1885C44.6475 58.2199 46.0782 60.2082 48.4798 60.8151C49.9658 61.1895 52.2311 61.31 54.5475 61.31C57.9241 61.31 61.3987 61.0518 62.7017 60.9442C61.007 62.3516 54.556 67.7959 52.5633 71.0238C51.9245 72.0567 51.6563 73.2059 51.8096 74.256C51.9629 75.2975 52.5079 76.1583 53.3467 76.6877C53.8747 77.0234 54.4709 77.1912 55.0925 77.1912C55.4545 77.1912 55.8207 77.1353 56.1869 77.0148C57.1875 76.692 58.0902 75.9474 58.7289 74.9145C60.7217 71.6866 62.74 63.4404 63.2467 61.2842C64.043 63.3501 67.1769 71.2304 69.5955 74.1441C70.5621 75.3061 71.8267 75.9216 73.0275 75.9216C73.8024 75.9216 74.5476 75.6677 75.1693 75.1383C75.9272 74.497 76.3488 73.5631 76.3573 72.5129C76.3658 71.4499 75.9442 70.3524 75.1693 69.4185C72.7507 66.5048 65.6142 62.0159 63.7407 60.8624C65.9293 60.7333 74.3134 60.1566 77.805 58.732C78.9206 58.2758 79.8063 57.5054 80.2917 56.5672C80.7729 55.6376 80.8325 54.6133 80.462 53.6836L80.4493 53.6879Z" fill="#FFF56B" stroke="#654214" stroke-width="2" stroke-linejoin="round"/>
<path d="M80.6877 62.4549C80.0745 61.5898 79.0952 60.9528 77.9285 60.6602C74.2751 59.7391 65.8952 60.3503 63.7066 60.531C65.4013 59.1237 71.8522 53.6793 73.845 50.4514C74.4837 49.4185 74.752 48.2694 74.5987 47.2193C74.4454 46.1777 73.9003 45.317 73.0615 44.7876C72.2227 44.2582 71.2135 44.142 70.2256 44.4562C69.225 44.779 68.3223 45.5235 67.6836 46.5565C65.6908 49.7843 63.6725 58.0305 63.1658 60.1867C62.3695 58.1209 59.2356 50.2405 56.817 47.3268C55.2288 45.4116 52.8315 44.9856 51.2432 46.3327C50.4853 46.9739 50.0637 47.9079 50.0552 48.958C50.0467 50.0211 50.4683 51.1185 51.2432 52.0525C53.6618 54.9662 60.7983 59.4551 62.6719 60.6085C60.4832 60.7376 52.0991 61.3143 48.6075 62.7389C47.4919 63.1951 46.6062 63.9655 46.1208 64.9037C45.6396 65.8334 45.58 66.8577 45.9505 67.7873C46.3209 68.7126 47.0703 69.4056 48.0539 69.7413C48.4712 69.8833 48.9183 69.9522 49.3825 69.9522C50.0212 69.9522 50.6854 69.8187 51.3326 69.5519C54.8243 68.1273 61.2497 62.6528 62.9146 61.2067C62.361 63.3501 60.3086 71.5876 60.5726 75.3836C60.7387 77.7808 62.3057 79.5067 64.2644 79.5067C64.341 79.5067 64.4219 79.5067 64.5028 79.4981C66.5722 79.3517 67.9987 77.3634 67.8284 74.8671C67.5644 71.0712 64.4006 63.2037 63.5575 61.1551C65.4055 62.3516 72.5207 66.8663 76.1742 67.7873C76.617 67.8992 77.0598 67.9552 77.4899 67.9552C78.1925 67.9552 78.8652 67.8045 79.4486 67.5119C80.3811 67.0428 81.0241 66.2508 81.2625 65.2825C81.501 64.3141 81.3009 63.307 80.6962 62.4549H80.6877Z" fill="#FFF56B" stroke="#654214" stroke-width="2" stroke-linejoin="round"/>
<path d="M63.1996 64.4949C65.2549 64.4949 66.9211 62.8108 66.9211 60.7334C66.9211 58.6559 65.2549 56.9718 63.1996 56.9718C61.1442 56.9718 59.478 58.6559 59.478 60.7334C59.478 62.8108 61.1442 64.4949 63.1996 64.4949Z" fill="#2DE693" stroke="#654214" stroke-width="2" stroke-linejoin="round"/>
</g>
</svg>
