<svg width="52" height="52" viewBox="0 0 52 52" fill="none" xmlns="http://www.w3.org/2000/svg">
<mask id="mask0_66_467" style="mask-type:alpha" maskUnits="userSpaceOnUse" x="0" y="0" width="52" height="52">
<rect width="52" height="52" fill="#D9D9D9"/>
</mask>
<g mask="url(#mask0_66_467)">
<path d="M48.3 36.31V35.51C48.3 23.08 38.97 13 27.47 13C15.97 13 6.63 23.08 6.63 35.51V36.36C5.7 36.57 5 37.47 5 38.53C5 39.76 5.92 40.75 7.06 40.75H48.26C49.4 40.75 50.32 39.75 50.32 38.53C50.32 37.31 49.42 36.33 48.31 36.31H48.3Z" fill="#FFFF5A"/>
<path d="M46.3 34.31V33.51C46.3 21.08 36.97 11 25.47 11C13.97 11 4.63 21.08 4.63 33.51V34.36C3.7 34.57 3 35.47 3 36.53C3 37.76 3.92 38.75 5.06 38.75H46.26C47.4 38.75 48.32 37.75 48.32 36.53C48.32 35.31 47.42 34.33 46.31 34.31H46.3Z" stroke="#654214" stroke-width="2" stroke-linecap="round" stroke-linejoin="round"/>
<path d="M28.9699 29.19H26.7799V27C26.7799 26.85 26.6599 26.73 26.5099 26.73H24.3799C24.2299 26.73 24.1099 26.85 24.1099 27V29.19H21.9199C21.7699 29.19 21.6499 29.31 21.6499 29.46V31.59C21.6499 31.74 21.7699 31.86 21.9199 31.86H24.1099V34.05C24.1099 34.2 24.2299 34.32 24.3799 34.32H26.5099C26.6599 34.32 26.7799 34.2 26.7799 34.05V31.86H28.9699C29.1199 31.86 29.2399 31.74 29.2399 31.59V29.46C29.2399 29.31 29.1199 29.19 28.9699 29.19Z" fill="white" stroke="#654214" stroke-width="2" stroke-linecap="round" stroke-linejoin="round"/>
<path d="M5.00994 29.1899H18.4999C18.6399 29.1899 18.7499 29.3099 18.7499 29.4599V31.5899C18.7499 31.7399 18.6399 31.8599 18.4999 31.8599H4.68994" fill="white"/>
<path d="M5.00994 29.1899H18.4999C18.6399 29.1899 18.7499 29.3099 18.7499 29.4599V31.5899C18.7499 31.7399 18.6399 31.8599 18.4999 31.8599H4.68994" stroke="#654214" stroke-width="2" stroke-linecap="round" stroke-linejoin="round"/>
<path d="M45.9099 29.1899H32.4199C32.2799 29.1899 32.1699 29.3099 32.1699 29.4599V31.5899C32.1699 31.7399 32.2799 31.8599 32.4199 31.8599H46.2399" fill="white"/>
<path d="M45.9099 29.1899H32.4199C32.2799 29.1899 32.1699 29.3099 32.1699 29.4599V31.5899C32.1699 31.7399 32.2799 31.8599 32.4199 31.8599H46.2399" stroke="#654214" stroke-width="2" stroke-linecap="round" stroke-linejoin="round"/>
</g>
</svg>
