<svg width="17" height="20" viewBox="0 0 17 20" fill="none" xmlns="http://www.w3.org/2000/svg">
<path d="M15.603 0H0.447965C0.199861 0 0 0.199861 0 0.447965V19.5519C0 19.8001 0.199861 19.9999 0.447965 19.9999H6.40245C6.65056 19.9999 6.85042 19.8001 6.85042 19.5519V15.6581C6.85042 15.5065 6.97447 15.3893 7.1192 15.3893H8.91795C9.06957 15.3893 9.18673 15.5134 9.18673 15.6581V19.5519C9.18673 19.8001 9.38659 19.9999 9.63469 19.9999H15.5892C15.8373 19.9999 16.0371 19.8001 16.0371 19.5519V0.447965C16.0371 0.199861 15.8373 0 15.5892 0H15.603ZM4.82424 16.2301C4.82424 16.4093 4.67951 16.554 4.50032 16.554H2.72225C2.54306 16.554 2.39833 16.4093 2.39833 16.2301V14.452C2.39833 14.2729 2.54306 14.1281 2.72225 14.1281H4.50032C4.67951 14.1281 4.82424 14.2729 4.82424 14.452V16.2301ZM4.82424 12.3845C4.82424 12.5637 4.67951 12.7084 4.50032 12.7084H2.72225C2.54306 12.7084 2.39833 12.5637 2.39833 12.3845V10.6064C2.39833 10.4272 2.54306 10.2825 2.72225 10.2825H4.50032C4.67951 10.2825 4.82424 10.4272 4.82424 10.6064V12.3845ZM4.82424 8.54579C4.82424 8.72498 4.67951 8.86971 4.50032 8.86971H2.72225C2.54306 8.86971 2.39833 8.72498 2.39833 8.54579V6.76772C2.39833 6.58853 2.54306 6.4438 2.72225 6.4438H4.50032C4.67951 6.4438 4.82424 6.58853 4.82424 6.76772V8.54579ZM4.82424 4.70019C4.82424 4.87937 4.67951 5.0241 4.50032 5.0241H2.72225C2.54306 5.0241 2.39833 4.87937 2.39833 4.70019V2.92211C2.39833 2.74292 2.54306 2.5982 2.72225 2.5982H4.50032C4.67951 2.5982 4.82424 2.74292 4.82424 2.92211V4.70019ZM9.24186 12.3845C9.24186 12.5637 9.09713 12.7084 8.91795 12.7084H7.13987C6.96068 12.7084 6.81596 12.5637 6.81596 12.3845V10.6064C6.81596 10.4272 6.96068 10.2825 7.13987 10.2825H8.91795C9.09713 10.2825 9.24186 10.4272 9.24186 10.6064V12.3845ZM9.24186 8.54579C9.24186 8.72498 9.09713 8.86971 8.91795 8.86971H7.13987C6.96068 8.86971 6.81596 8.72498 6.81596 8.54579V6.76772C6.81596 6.58853 6.96068 6.4438 7.13987 6.4438H8.91795C9.09713 6.4438 9.24186 6.58853 9.24186 6.76772V8.54579ZM9.24186 4.70019C9.24186 4.87937 9.09713 5.0241 8.91795 5.0241H7.13987C6.96068 5.0241 6.81596 4.87937 6.81596 4.70019V2.92211C6.81596 2.74292 6.96068 2.5982 7.13987 2.5982H8.91795C9.09713 2.5982 9.24186 2.74292 9.24186 2.92211V4.70019ZM13.6595 16.2301C13.6595 16.4093 13.5148 16.554 13.3356 16.554H11.5575C11.3783 16.554 11.2336 16.4093 11.2336 16.2301V14.452C11.2336 14.2729 11.3783 14.1281 11.5575 14.1281H13.3356C13.5148 14.1281 13.6595 14.2729 13.6595 14.452V16.2301ZM13.6595 12.3845C13.6595 12.5637 13.5148 12.7084 13.3356 12.7084H11.5575C11.3783 12.7084 11.2336 12.5637 11.2336 12.3845V10.6064C11.2336 10.4272 11.3783 10.2825 11.5575 10.2825H13.3356C13.5148 10.2825 13.6595 10.4272 13.6595 10.6064V12.3845ZM13.6595 8.54579C13.6595 8.72498 13.5148 8.86971 13.3356 8.86971H11.5575C11.3783 8.86971 11.2336 8.72498 11.2336 8.54579V6.76772C11.2336 6.58853 11.3783 6.4438 11.5575 6.4438H13.3356C13.5148 6.4438 13.6595 6.58853 13.6595 6.76772V8.54579ZM13.6595 4.70019C13.6595 4.87937 13.5148 5.0241 13.3356 5.0241H11.5575C11.3783 5.0241 11.2336 4.87937 11.2336 4.70019V2.92211C11.2336 2.74292 11.3783 2.5982 11.5575 2.5982H13.3356C13.5148 2.5982 13.6595 2.74292 13.6595 2.92211V4.70019Z" fill="#654214"/>
</svg>
