<svg width="52" height="52" viewBox="0 0 52 52" fill="none" xmlns="http://www.w3.org/2000/svg">
<mask id="mask0_74_147" style="mask-type:alpha" maskUnits="userSpaceOnUse" x="0" y="0" width="52" height="52">
<rect width="52" height="52" fill="#D9D9D9"/>
</mask>
<g mask="url(#mask0_74_147)">
<path d="M27.79 50.58C40.3766 50.58 50.58 40.3766 50.58 27.79C50.58 15.2034 40.3766 5 27.79 5C15.2034 5 5 15.2034 5 27.79C5 40.3766 15.2034 50.58 27.79 50.58Z" fill="#FFFF5A"/>
<path d="M24.79 47.58C37.3766 47.58 47.58 37.3766 47.58 24.79C47.58 12.2034 37.3766 2 24.79 2C12.2034 2 2 12.2034 2 24.79C2 37.3766 12.2034 47.58 24.79 47.58Z" stroke="#654214" stroke-width="2" stroke-miterlimit="10"/>
<path d="M12.6901 15.5201C13.8101 16.1801 16.3501 17.3901 17.5601 17.3901C18.7701 17.3901 21.5901 16.3601 22.2501 16.3601C22.9101 16.3601 23.2801 16.9201 24.1201 16.9201C24.9601 16.9201 25.9001 16.5501 26.8401 16.8301C27.7801 17.1101 29.3701 19.0801 30.5901 18.7001C31.8101 18.3201 33.4001 15.7901 34.3401 15.3301C35.2801 14.8701 36.9601 15.4201 37.7101 15.1401C38.4601 14.8601 39.0201 14.5801 39.4901 14.1101C40.6101 15.3301 43.1501 17.6701 43.6101 19.4501C44.0701 21.2301 43.8901 24.0401 42.8601 24.7901C41.8301 25.6301 40.5201 24.7001 39.9501 24.9801C38.6401 25.6401 38.1701 27.7001 36.7601 28.4501C35.3501 29.2001 34.9801 29.5701 34.5101 29.8601C34.0401 30.1501 33.1001 31.3601 31.7001 31.7301C30.3001 32.1001 29.8301 31.7301 28.7001 32.1001C27.5701 32.4701 26.8301 32.9401 26.0801 33.0401C25.3301 33.1401 24.3001 32.9501 23.2701 33.2301C22.2401 33.5101 21.8601 34.1701 20.0801 34.2601C18.3001 34.3501 16.0501 34.9201 14.7401 35.2901C13.4301 35.6601 12.1201 35.3801 11.4601 34.7301C10.8001 34.0801 10.7101 33.4201 10.7101 32.3901C10.7101 31.3601 10.9001 30.3301 10.3401 29.9501C9.78011 29.5701 8.09011 30.3201 7.15011 30.1401C6.21011 29.9601 6.03011 29.2001 5.93011 28.6401C5.83011 28.0801 5.74011 25.6401 5.74011 24.8901C5.74011 24.1401 5.46011 22.0801 6.30011 21.4201C7.14011 20.7601 9.30011 20.3901 10.2401 19.4501C11.1801 18.5101 12.6801 15.5101 12.6801 15.5101L12.6901 15.5201Z" fill="white"/>
<path d="M12.6901 15.5201C13.8101 16.1801 16.3501 17.3901 17.5601 17.3901C18.7701 17.3901 21.5901 16.3601 22.2501 16.3601C22.9101 16.3601 23.2801 16.9201 24.1201 16.9201C24.9601 16.9201 25.9001 16.5501 26.8401 16.8301C27.7801 17.1101 29.3701 19.0801 30.5901 18.7001C31.8101 18.3201 33.4001 15.7901 34.3401 15.3301C35.2801 14.8701 36.9601 15.4201 37.7101 15.1401C38.4601 14.8601 39.0201 14.5801 39.4901 14.1101C40.6101 15.3301 43.1501 17.6701 43.6101 19.4501C44.0701 21.2301 43.8901 24.0401 42.8601 24.7901C41.8301 25.6301 40.5201 24.7001 39.9501 24.9801C38.6401 25.6401 38.1701 27.7001 36.7601 28.4501C35.3501 29.2001 34.9801 29.5701 34.5101 29.8601C34.0401 30.1501 33.1001 31.3601 31.7001 31.7301C30.3001 32.1001 29.8301 31.7301 28.7001 32.1001C27.5701 32.4701 26.8301 32.9401 26.0801 33.0401C25.3301 33.1401 24.3001 32.9501 23.2701 33.2301C22.2401 33.5101 21.8601 34.1701 20.0801 34.2601C18.3001 34.3501 16.0501 34.9201 14.7401 35.2901C13.4301 35.6601 12.1201 35.3801 11.4601 34.7301C10.8001 34.0801 10.7101 33.4201 10.7101 32.3901C10.7101 31.3601 10.9001 30.3301 10.3401 29.9501C9.78011 29.5701 8.09011 30.3201 7.15011 30.1401C6.21011 29.9601 6.03011 29.2001 5.93011 28.6401C5.83011 28.0801 5.74011 25.6401 5.74011 24.8901C5.74011 24.1401 5.46011 22.0801 6.30011 21.4201C7.14011 20.7601 9.30011 20.3901 10.2401 19.4501C11.1801 18.5101 12.6801 15.5101 12.6801 15.5101L12.6901 15.5201Z" stroke="#654214" stroke-width="2" stroke-linejoin="round"/>
</g>
</svg>
