<svg width="93" height="83" viewBox="0 0 93 83" fill="none" xmlns="http://www.w3.org/2000/svg">
<mask id="mask0_58_202" style="mask-type:alpha" maskUnits="userSpaceOnUse" x="0" y="0" width="93" height="83">
<rect x="0.5" y="0.5" width="92" height="82" fill="white" stroke="#D9D9D9"/>
</mask>
<g mask="url(#mask0_58_202)">
<path d="M64.6856 61.1298C65.1637 52.7237 65.2455 41.2443 64.6856 33.1778C64.1128 26.5478 61.5243 23.5528 57.0021 22.4384C47.7379 20.8669 42.4103 28.0758 41.2474 35.0453C33.3313 37.544 27.7021 43.9476 27.7021 51.4526C27.7409 55.1964 28.6626 59.0403 29.0631 61.1342H64.6813L64.6856 61.1298Z" fill="#2DE693" stroke="#654214" stroke-width="2" stroke-linejoin="round"/>
<path d="M39.2748 56.1889L33.3614 50.2119C31.7291 48.562 31.5353 45.8761 33.0599 44.1218C34.731 42.202 37.6252 42.128 39.3868 43.9085L40.2697 44.8009L41.0492 44.0129C42.6816 42.3631 45.3389 42.1672 47.0746 43.7082C48.974 45.3973 49.0472 48.3226 47.2856 50.1031L41.2689 56.1845C40.7176 56.7418 39.8304 56.7418 39.2791 56.1845L39.2748 56.1889Z" fill="#FFFF5A" stroke="#654214" stroke-width="2" stroke-linejoin="round"/>
<path d="M56.2096 19.1342C60.8908 19.1342 64.6856 15.2986 64.6856 10.5671C64.6856 5.83558 60.8908 1.99994 56.2096 1.99994C51.5285 1.99994 47.7336 5.83558 47.7336 10.5671C47.7336 15.2986 51.5285 19.1342 56.2096 19.1342Z" fill="white" stroke="#654214" stroke-width="2" stroke-linejoin="round"/>
<path d="M61.6879 64.3468V75.5302C61.6879 78.116 59.0392 80.2099 55.7702 80.2099C52.5013 80.2099 49.8525 78.116 49.8525 75.5302V64.3468H61.6879Z" fill="white" stroke="#654214" stroke-width="2" stroke-linejoin="round"/>
</g>
</svg>
