<svg width="52" height="52" viewBox="0 0 52 52" fill="none" xmlns="http://www.w3.org/2000/svg">
<mask id="mask0_74_148" style="mask-type:alpha" maskUnits="userSpaceOnUse" x="0" y="0" width="52" height="52">
<rect width="52" height="52" fill="#D9D9D9"/>
</mask>
<g mask="url(#mask0_74_148)">
<path d="M25.72 43.44C36.0588 43.44 44.44 35.0588 44.44 24.72C44.44 14.3812 36.0588 6 25.72 6C15.3812 6 7 14.3812 7 24.72C7 35.0588 15.3812 43.44 25.72 43.44Z" fill="#FFFF5A"/>
<path d="M22.72 40.44C33.0588 40.44 41.44 32.0588 41.44 21.72C41.44 11.3812 33.0588 3 22.72 3C12.3812 3 4 11.3812 4 21.72C4 32.0588 12.3812 40.44 22.72 40.44Z" stroke="#654214" stroke-width="2" stroke-miterlimit="10" stroke-linecap="round"/>
<path d="M45.1799 47.7199L34.1799 36.7199L37.7199 33.1799L48.7199 44.1799C49.2199 44.6799 49.2099 45.4799 48.7199 45.9699L46.9799 47.7099C46.4799 48.1999 45.6799 48.1999 45.1899 47.7099L45.1799 47.7199Z" stroke="#654214" stroke-width="2" stroke-linecap="round" stroke-linejoin="round"/>
<path d="M25.1734 19.9341C27.9974 18.581 29.1899 15.1948 27.8369 12.3708C26.4838 9.54672 23.0976 8.35424 20.2735 9.7073C17.4495 11.0604 16.257 14.4466 17.6101 17.2706C18.9631 20.0947 22.3494 21.2871 25.1734 19.9341Z" stroke="#654214" stroke-width="2" stroke-miterlimit="10" stroke-linecap="round"/>
<path d="M11.6399 31.3999C12.3899 28.5499 14.2899 26.2799 16.5399 24.9899C18.7899 23.6999 21.2699 23.3999 22.7199 23.3999C24.1699 23.3999 26.6499 23.7899 28.8999 25.0799C31.1499 26.3699 33.0299 28.8899 33.7999 31.3999" stroke="#654214" stroke-width="2" stroke-miterlimit="10" stroke-linecap="round"/>
</g>
</svg>
