<svg width="52" height="52" viewBox="0 0 52 52" fill="none" xmlns="http://www.w3.org/2000/svg">
<mask id="mask0_66_466" style="mask-type:alpha" maskUnits="userSpaceOnUse" x="0" y="0" width="52" height="52">
<rect width="52" height="52" fill="#D9D9D9"/>
</mask>
<g mask="url(#mask0_66_466)">
<path d="M46.689 36.4438H49.2892C49.69 36.4438 50.0126 36.1505 50.0126 35.7791V17.0791C50.0126 15.6129 48.7125 14.4203 47.0996 14.4203H6.82582C4.81213 14.4203 3.18945 15.9061 3.18945 17.7438V35.7791C3.18945 36.1505 3.51203 36.4438 3.91282 36.4438H11.645H21.078H37.168" fill="white"/>
<path d="M46.689 36.4438H49.2892C49.69 36.4438 50.0126 36.1505 50.0126 35.7791V17.0791C50.0126 15.6129 48.7125 14.4203 47.0996 14.4203H6.82582C4.81213 14.4203 3.18945 15.9061 3.18945 17.7439V35.7791C3.18945 36.1505 3.51203 36.4438 3.91282 36.4438H11.645H21.078H37.168" stroke="#654214" stroke-width="1.95504" stroke-miterlimit="10"/>
<path d="M41.9774 40.3246C44.6335 40.3246 46.7867 38.1714 46.7867 35.5152C46.7867 32.859 44.6335 30.7058 41.9774 30.7058C39.3212 30.7058 37.168 32.859 37.168 35.5152C37.168 38.1714 39.3212 40.3246 41.9774 40.3246Z" fill="white" stroke="#654214" stroke-width="1.95504" stroke-miterlimit="10"/>
<path d="M41.9774 37.8906C43.2893 37.8906 44.3528 36.8271 44.3528 35.5153C44.3528 34.2034 43.2893 33.1399 41.9774 33.1399C40.6655 33.1399 39.6021 34.2034 39.6021 35.5153C39.6021 36.8271 40.6655 37.8906 41.9774 37.8906Z" fill="#654214"/>
<path d="M20.4427 18.7605H16.6304C16.0474 18.7605 15.5747 19.2332 15.5747 19.8162V23.5406C15.5747 24.1236 16.0474 24.5963 16.6304 24.5963H20.4427C21.0258 24.5963 21.4985 24.1236 21.4985 23.5406V19.8162C21.4985 19.2332 21.0258 18.7605 20.4427 18.7605Z" fill="#FFFF5A" stroke="#654214" stroke-width="1.95504" stroke-miterlimit="10"/>
<path d="M28.83 18.7605H25.0176C24.4346 18.7605 23.9619 19.2332 23.9619 19.8162V23.5406C23.9619 24.1236 24.4346 24.5963 25.0176 24.5963H28.83C29.413 24.5963 29.8857 24.1236 29.8857 23.5406V19.8162C29.8857 19.2332 29.413 18.7605 28.83 18.7605Z" fill="#FFFF5A" stroke="#654214" stroke-width="1.95504" stroke-miterlimit="10"/>
<path d="M37.2172 18.7605H33.4048C32.8218 18.7605 32.3491 19.2332 32.3491 19.8162V23.5406C32.3491 24.1236 32.8218 24.5963 33.4048 24.5963H37.2172C37.8002 24.5963 38.2729 24.1236 38.2729 23.5406V19.8162C38.2729 19.2332 37.8002 18.7605 37.2172 18.7605Z" fill="#FFFF5A" stroke="#654214" stroke-width="1.95504" stroke-miterlimit="10"/>
<path d="M45.6139 18.7605H41.8016C41.2185 18.7605 40.7458 19.2332 40.7458 19.8162V23.5406C40.7458 24.1236 41.2185 24.5963 41.8016 24.5963H45.6139C46.1969 24.5963 46.6696 24.1236 46.6696 23.5406V19.8162C46.6696 19.2332 46.1969 18.7605 45.6139 18.7605Z" fill="#FFFF5A" stroke="#654214" stroke-width="1.95504" stroke-miterlimit="10"/>
<path d="M7.56893 18.7605H11.9384C12.261 18.7605 12.525 18.9853 12.525 19.2688V29.4057C12.525 29.6892 12.261 29.914 11.9384 29.914H7.56893C7.24635 29.914 6.98242 29.6892 6.98242 29.4057V19.2688C6.98242 18.9853 7.24635 18.7605 7.56893 18.7605Z" fill="#FFFF5A" stroke="#654214" stroke-width="1.95504" stroke-miterlimit="10"/>
<path d="M16.3565 40.3246C19.0127 40.3246 21.1659 38.1714 21.1659 35.5152C21.1659 32.859 19.0127 30.7058 16.3565 30.7058C13.7004 30.7058 11.5471 32.859 11.5471 35.5152C11.5471 38.1714 13.7004 40.3246 16.3565 40.3246Z" fill="white" stroke="#654214" stroke-width="1.95504" stroke-miterlimit="10"/>
<path d="M16.3568 37.8906C17.6687 37.8906 18.7322 36.8271 18.7322 35.5153C18.7322 34.2034 17.6687 33.1399 16.3568 33.1399C15.0449 33.1399 13.9814 34.2034 13.9814 35.5153C13.9814 36.8271 15.0449 37.8906 16.3568 37.8906Z" fill="#654214"/>
<path d="M1.9774 32.2112C1.9774 32.8699 2.51134 33.4038 3.16998 33.4038C3.82862 33.4038 4.36255 32.8699 4.36255 32.2112V31.1164C4.36255 30.4578 3.82862 29.9238 3.16998 29.9238C2.51134 29.9238 1.9774 30.4578 1.9774 31.1164L1.9774 32.2112Z" fill="#FFFF5A" stroke="#654214" stroke-width="1.95504" stroke-miterlimit="10"/>
</g>
</svg>
