<svg width="52" height="52" viewBox="0 0 52 52" fill="none" xmlns="http://www.w3.org/2000/svg">
<mask id="mask0_124_160" style="mask-type:alpha" maskUnits="userSpaceOnUse" x="0" y="0" width="52" height="52">
<rect width="52" height="52" fill="#D9D9D9"/>
</mask>
<g mask="url(#mask0_124_160)">
<path d="M33.0601 23.26L50.6301 36.08C52.2001 37.23 52.4901 39.45 51.2701 40.96C50.0501 42.47 47.8101 42.65 46.3601 41.36L30.1401 26.87" fill="#FFFF5A"/>
<path d="M37.3202 15.92C34.2502 22.62 29.7602 28.18 23.8502 32.59L13.6802 24.37C16.6302 17.57 21.1302 12.02 27.1502 7.69995L37.3202 15.92Z" fill="#FFFF5A"/>
<path d="M10.8765 24.8883L10.8451 24.9271C10.0917 25.8592 10.2365 27.2255 11.1686 27.9789L20.9597 35.8935C21.8918 36.6469 23.2581 36.5021 24.0115 35.5701L24.0429 35.5312C24.7963 34.5991 24.6515 33.2328 23.7195 32.4794L13.9283 24.5648C12.9963 23.8114 11.6299 23.9562 10.8765 24.8883Z" fill="#FFFF5A"/>
<path d="M27.1055 4.80684L27.0741 4.84573C26.3207 5.77776 26.4655 7.14408 27.3976 7.89748L37.1887 15.8121C38.1208 16.5655 39.4871 16.4207 40.2405 15.4886L40.2719 15.4498C41.0253 14.5177 40.8805 13.1514 39.9485 12.398L30.1573 4.4834C29.2253 3.73 27.8589 3.87481 27.1055 4.80684Z" fill="#FFFF5A"/>
<path d="M31.0601 21.2599L48.6301 34.0799C50.2001 35.2299 50.4901 37.4499 49.2701 38.9599C48.0501 40.4699 45.8101 40.6499 44.3601 39.3599L28.1401 24.8699" stroke="#654214" stroke-width="2" stroke-linejoin="round"/>
<path d="M35.3202 13.92C32.2502 20.62 27.7602 26.18 21.8502 30.59L11.6802 22.37C14.6302 15.57 19.1302 10.02 25.1502 5.69995L35.3202 13.92Z" stroke="#654214" stroke-width="2" stroke-linejoin="round"/>
<path d="M8.88387 22.8963L8.85243 22.9352C8.09903 23.8672 8.24384 25.2336 9.17588 25.987L18.9671 33.9016C19.8991 34.655 21.2654 34.5101 22.0188 33.5781L22.0502 33.5392C22.8036 32.6072 22.6588 31.2409 21.7268 30.4875L11.9356 22.5729C11.0036 21.8195 9.63727 21.9643 8.88387 22.8963Z" stroke="#654214" stroke-width="2" stroke-linejoin="round"/>
<path d="M25.1129 2.80489L25.0814 2.84377C24.328 3.77581 24.4728 5.14212 25.4049 5.89553L35.1961 13.8101C36.1281 14.5635 37.4944 14.4187 38.2478 13.4867L38.2792 13.4478C39.0326 12.5158 38.8878 11.1494 37.9558 10.396L28.1646 2.48145C27.2326 1.72804 25.8663 1.87285 25.1129 2.80489Z" stroke="#654214" stroke-width="2" stroke-linejoin="round"/>
<path d="M3.61 43.38H24.8C25.69 43.38 26.41 44.1 26.41 44.99V49.8H2V44.99C2 44.1 2.72 43.38 3.61 43.38Z" fill="white" stroke="#654214" stroke-width="2" stroke-linejoin="round"/>
<path d="M6.54994 38.48H21.8599C22.7499 38.48 23.4699 39.2 23.4699 40.09V43.38H4.93994V40.09C4.93994 39.2 5.65994 38.48 6.54994 38.48Z" fill="white" stroke="#654214" stroke-width="2" stroke-linejoin="round"/>
</g>
</svg>
