<svg width="52" height="52" viewBox="0 0 52 52" fill="none" xmlns="http://www.w3.org/2000/svg">
<mask id="mask0_66_420" style="mask-type:alpha" maskUnits="userSpaceOnUse" x="0" y="0" width="52" height="52">
<rect width="52" height="52" fill="#D9D9D9"/>
</mask>
<g mask="url(#mask0_66_420)">
<path d="M34.412 17.7809C33.754 18.421 32.9993 18.9739 32.1768 19.3909C29.4095 18.8672 26.6421 18.8672 23.8747 19.3909C23.0232 18.9545 22.2491 18.3919 21.5718 17.7227C19.0173 18.4986 16.666 19.7207 14.7598 21.4278C14.1502 20.8458 13.289 20.2445 12.4956 19.8371C11.0538 19.0806 9.18632 19.1097 8.20902 19.1679C7.7736 19.197 7.50267 19.6431 7.66716 20.0408L9.97976 25.4627C8.30579 26.7915 7.18335 27.5675 6.44797 27.9554C5.19974 28.615 2.80006 29.1097 2.80006 29.1097C2.27755 29.2842 1.94856 29.808 2.00662 30.3512L2.67427 36.7818C2.72265 37.2862 3.00326 37.7421 3.43869 38.0039C5.75128 39.1776 10.2894 42.0292 16.2209 43.9593L18.0013 49.6431C18.0787 49.8856 18.3109 50.0602 18.5625 50.0602H22.3459C22.6749 50.0602 22.9361 49.7983 22.9361 49.4685V45.55C24.2714 45.744 25.6454 45.8604 27.0582 45.8992C28.8966 45.938 30.6093 45.8022 32.2155 45.5209V49.4685C32.2155 49.7983 32.4768 50.0602 32.8058 50.0602H36.5892C36.8504 50.0602 37.073 49.8953 37.1504 49.6431L39.2985 42.7954C42.927 40.3415 44.9784 36.549 44.9784 31.9128C44.9784 25.3754 40.5564 19.9632 34.4217 17.7809H34.412Z" fill="white" stroke="#654214" stroke-width="2" stroke-linejoin="round"/>
<path d="M49.0616 17.7032C49.0616 17.7032 48.4037 19.6139 47.1554 20.6906C45.9072 21.7672 44.3397 21.4083 43.4978 20.5742C42.656 19.74 42.5786 18.45 43.3237 17.7032C44.0687 16.9563 45.2202 17.3928 45.9072 18.0911C46.5942 18.7895 46.8458 20.5645 45.9749 21.6023C45.2686 22.4461 44.4074 23.4161 42.5786 24.0465" stroke="#654214" stroke-width="2" stroke-miterlimit="10" stroke-linecap="round"/>
<path d="M23.8749 19.3909C26.6423 18.8671 29.4097 18.8671 32.1771 19.3909C35.1573 17.8681 37.199 14.774 37.199 11.195C37.199 6.11251 33.0963 2 28.026 2C22.9557 2 18.853 6.11251 18.853 11.195C18.853 14.774 20.8947 17.8778 23.8749 19.3909Z" fill="#FFFF5A" stroke="#654214" stroke-width="2" stroke-miterlimit="10"/>
<path d="M10.6958 32.2813C11.3371 32.2813 11.8569 31.7602 11.8569 31.1174C11.8569 30.4746 11.3371 29.9535 10.6958 29.9535C10.0545 29.9535 9.53467 30.4746 9.53467 31.1174C9.53467 31.7602 10.0545 32.2813 10.6958 32.2813Z" fill="#654214"/>
<path d="M24.2617 7.85839C24.1262 7.6741 24.0488 7.45102 24.0488 7.25703C24.0488 6.72357 24.5713 6.2677 25.1422 6.2677C25.4809 6.2677 25.7809 6.42289 25.9454 6.69447L28.0257 9.92434L30.1061 6.69447C30.2706 6.43259 30.5609 6.2677 30.8995 6.2677C31.4898 6.2677 31.9929 6.72357 31.9929 7.25703C31.9929 7.45102 31.9059 7.6838 31.7897 7.85839L29.719 10.6906H31.4898C31.7704 10.6906 31.9736 10.9331 31.9736 11.2338C31.9736 11.5635 31.7704 11.7866 31.4898 11.7866H29.1095V12.8632H31.4898C31.7704 12.8632 31.9736 13.1057 31.9736 13.4064C31.9736 13.7071 31.7704 13.9496 31.4898 13.9496H29.1095V15.5597C29.1095 16.064 28.6547 16.4326 28.016 16.4326C27.3774 16.4326 26.942 16.0737 26.942 15.5597V13.9496H24.5617C24.2811 13.9496 24.0779 13.7168 24.0779 13.4064C24.0779 13.096 24.2811 12.8632 24.5617 12.8632H26.942V11.7866H24.5617C24.2811 11.7866 24.0779 11.5538 24.0779 11.2338C24.0779 10.9137 24.2811 10.6906 24.5617 10.6906H26.3324L24.2617 7.85839Z" fill="#654214"/>
<path d="M20.9912 20.2056C25.5971 18.7798 30.2029 18.7798 34.8087 20.2056" stroke="#654214" stroke-width="2" stroke-miterlimit="10" stroke-linecap="round"/>
</g>
</svg>
