<svg width="19" height="22" viewBox="0 0 19 22" fill="none" xmlns="http://www.w3.org/2000/svg">
<path d="M11.8314 12.3804L17.3754 11.0547V19.4243L11.8314 20.75L6.29403 19.143L0.75 20.4688V12.0992L6.29403 10.7734" stroke="#654214" stroke-width="1.5" stroke-linejoin="round"/>
<path d="M6.29297 10.7734V19.143" stroke="#654214" stroke-width="1.5" stroke-linejoin="round"/>
<path d="M11.8306 12.3802V20.7499" stroke="#654214" stroke-width="1.5" stroke-linejoin="round"/>
<path d="M9.42037 15.0386C9.42037 15.0386 14.2011 10.3717 14.2011 5.49724C14.2011 2.97966 12.6611 0.75 9.42037 0.75C6.17966 0.75 4.63965 2.97966 4.63965 5.49724C4.63965 10.3784 9.42037 15.0386 9.42037 15.0386Z" stroke="#654214" stroke-width="1.5" stroke-linejoin="round"/>
<path d="M9.42141 4.6603C9.97045 4.6603 10.4124 5.10222 10.4124 5.65127C10.4124 6.20031 9.97045 6.64223 9.42141 6.64223C8.87236 6.64223 8.43045 6.20031 8.43045 5.65127C8.43045 5.10222 8.87236 4.6603 9.42141 4.6603ZM9.42141 3.32117C8.13584 3.32117 7.09131 4.36569 7.09131 5.65127C7.09131 6.93684 8.13584 7.98137 9.42141 7.98137C10.707 7.98137 11.7515 6.93684 11.7515 5.65127C11.7515 4.36569 10.707 3.32117 9.42141 3.32117Z" fill="#654214"/>
</svg>
