<svg width="93" height="83" viewBox="0 0 93 83" fill="none" xmlns="http://www.w3.org/2000/svg">
<mask id="mask0_55_152" style="mask-type:alpha" maskUnits="userSpaceOnUse" x="0" y="0" width="93" height="83">
<rect x="0.5" y="0.5" width="92" height="82" fill="white" stroke="#D9D9D9"/>
</mask>
<g mask="url(#mask0_55_152)">
<path d="M78.6092 5.66106H71.0096C68.8131 5.66106 66.9681 7.32363 66.7094 9.52394L64.4447 29.0653H39.2687C34.3292 29.0653 30.3073 33.1304 30.3073 38.123V47.8468L14.576 65.4247L4.70674 61.2608C3.34007 60.6836 1.7684 61.3348 1.19733 62.7211C0.626263 64.1025 1.27055 65.6911 2.64209 66.2683L16.011 71.9072L30.3073 55.9327V69.8302C30.3073 71.33 31.508 72.5436 32.9918 72.5436C34.4756 72.5436 35.6764 71.33 35.6764 69.8302V51.4729H69.6136V31.1126L71.9369 11.0829H78.6092C80.093 11.0829 81.2937 9.86928 81.2937 8.36952C81.2937 6.86975 80.093 5.65613 78.6092 5.65613V5.66106ZM35.6812 46.056V38.128C35.6812 36.125 37.292 34.497 39.2736 34.497H63.8199L62.4825 46.056H35.6861H35.6812Z" stroke="#654214" stroke-width="2" stroke-linejoin="round"/>
<path d="M90.5865 7.57525C90.5865 6.15442 89.4444 5 88.0387 5L74.8845 5.00493C74.5526 5.00493 74.2793 5.27627 74.2793 5.61668V11.0977C74.2793 11.4332 74.5478 11.7095 74.8845 11.7095H88.0387C89.4444 11.7095 90.5865 10.555 90.5865 9.13422V7.57525Z" fill="#2DE693" stroke="#654214" stroke-width="2" stroke-miterlimit="10"/>
<path d="M33.0252 76.52C36.0929 76.52 38.5797 74.0064 38.5797 70.9057C38.5797 67.8051 36.0929 65.2915 33.0252 65.2915C29.9575 65.2915 27.4707 67.8051 27.4707 70.9057C27.4707 74.0064 29.9575 76.52 33.0252 76.52Z" fill="white"/>
<path d="M33.0256 78C29.155 78 26.002 74.8179 26.002 70.9057C26.002 66.9935 29.1502 63.8114 33.0256 63.8114C36.9011 63.8114 40.0444 66.9935 40.0444 70.9057C40.0444 74.8179 36.8962 78 33.0256 78ZM33.0256 66.7665C30.7706 66.7665 28.9305 68.6215 28.9305 70.9007C28.9305 73.18 30.7658 75.035 33.0256 75.035C35.2855 75.035 37.1159 73.18 37.1159 70.9007C37.1159 68.6215 35.2806 66.7665 33.0256 66.7665Z" fill="#2DE693" stroke="#654214" stroke-width="2"/>
<path d="M64.8341 74.8623C75.2744 74.8623 83.738 66.3077 83.738 55.7551C83.738 45.2025 75.2744 36.6479 64.8341 36.6479C54.3937 36.6479 45.9302 45.2025 45.9302 55.7551C45.9302 66.3077 54.3937 74.8623 64.8341 74.8623Z" fill="white"/>
<path d="M64.8341 77.3241C53.0662 77.3241 43.4897 67.6497 43.4897 55.7502C43.4897 43.8508 53.0662 34.1763 64.8341 34.1763C76.6021 34.1763 86.1785 43.8557 86.1785 55.7502C86.1785 67.6447 76.6021 77.3241 64.8341 77.3241ZM64.8341 39.1147C55.7556 39.1147 48.3707 46.579 48.3707 55.7552C48.3707 64.9313 55.7556 72.3956 64.8341 72.3956C73.9127 72.3956 81.2976 64.9313 81.2976 55.7552C81.2976 46.579 73.9127 39.1147 64.8341 39.1147Z" fill="#2DE693" stroke="#654214" stroke-width="2"/>
<path d="M64.8348 61.2609C67.8432 61.2609 70.282 58.7959 70.282 55.7552C70.282 52.7145 67.8432 50.2495 64.8348 50.2495C61.8265 50.2495 59.3877 52.7145 59.3877 55.7552C59.3877 58.7959 61.8265 61.2609 64.8348 61.2609Z" fill="#FFF56B" stroke="#654214" stroke-width="2" stroke-miterlimit="10"/>
</g>
</svg>
