<svg width="52" height="52" viewBox="0 0 52 52" fill="none" xmlns="http://www.w3.org/2000/svg">
<mask id="mask0_66_468" style="mask-type:alpha" maskUnits="userSpaceOnUse" x="0" y="0" width="52" height="52">
<rect width="52" height="52" fill="#D9D9D9"/>
</mask>
<g mask="url(#mask0_66_468)">
<path d="M14.0288 22.8617C7.6723 23.7983 2.85229 28.1974 2.85229 33.4804C2.85229 36.8797 4.84133 39.9001 7.94592 41.8891C7.74596 43.4467 7.34605 44.5833 6.39889 45.6041C8.76679 45.8988 10.9137 45.1621 12.5554 43.8255C13.8288 44.1307 15.1759 44.2991 16.5651 44.2991C24.1424 44.2991 30.2884 39.4581 30.2884 33.491C30.2884 33.3647 30.2884 33.2384 30.2884 33.1121" fill="white"/>
<path d="M14.0288 22.8617C7.67229 23.7983 2.85229 28.1974 2.85229 33.4804C2.85229 36.8797 4.84133 39.9001 7.94592 41.8891C7.74596 43.4467 7.34605 44.5833 6.39889 45.6041C8.76679 45.8988 10.9137 45.1621 12.5554 43.8255C13.8288 44.1307 15.1759 44.2991 16.5651 44.2991C24.1424 44.2991 30.2884 39.4581 30.2884 33.491C30.2884 33.3647 30.2884 33.2384 30.2884 33.1121" stroke="#654214" stroke-width="2.1048" stroke-linejoin="round"/>
<path d="M49.9999 21.662C49.9999 14.1794 42.3068 8.11755 32.8036 8.11755C23.3005 8.11755 15.6179 14.1794 15.6179 21.662C15.6179 29.1445 23.311 35.2064 32.8142 35.2064C34.5612 35.2064 36.2555 34.9959 37.8446 34.617C39.9074 36.3009 42.591 37.227 45.5588 36.8481C44.3695 35.5747 43.8749 34.154 43.6118 32.1965C47.5057 29.7128 49.9999 25.9242 49.9999 21.662Z" fill="#FFFF5A"/>
<path d="M47.8951 19.5571C47.8951 12.0745 40.2021 6.0127 30.6989 6.0127C21.1957 6.0127 13.5132 12.0745 13.5132 19.5571C13.5132 27.0397 21.2062 33.1015 30.7094 33.1015C32.4564 33.1015 34.1508 32.891 35.7399 32.5122C37.8026 34.196 40.4862 35.1221 43.454 34.7433C42.2648 33.4699 41.7702 32.0491 41.5071 30.0916C45.401 27.608 47.8951 23.8193 47.8951 19.5571Z" stroke="#654214" stroke-width="2.1048" stroke-linecap="round" stroke-linejoin="round"/>
<path d="M21.9009 14.2952H39.497" stroke="#654214" stroke-width="2.1048" stroke-miterlimit="10" stroke-linecap="round"/>
<path d="M21.9009 19.6307H39.497" stroke="#654214" stroke-width="2.1048" stroke-miterlimit="10" stroke-linecap="round"/>
<path d="M21.9009 24.9559H39.497" stroke="#654214" stroke-width="2.1048" stroke-miterlimit="10" stroke-linecap="round"/>
</g>
</svg>
