<svg width="52" height="52" viewBox="0 0 52 52" fill="none" xmlns="http://www.w3.org/2000/svg">
<mask id="mask0_74_150" style="mask-type:alpha" maskUnits="userSpaceOnUse" x="0" y="0" width="52" height="52">
<rect width="52" height="52" fill="#D9D9D9"/>
</mask>
<g mask="url(#mask0_74_150)">
<path d="M33.17 5H16.12C14.3969 5 13 6.39687 13 8.12V47.81C13 49.5331 14.3969 50.93 16.12 50.93H33.17C34.8931 50.93 36.29 49.5331 36.29 47.81V8.12C36.29 6.39687 34.8931 5 33.17 5Z" fill="#FFFF5A"/>
<path d="M30.17 2H13.12C11.3969 2 10 3.39687 10 5.12V44.81C10 46.5331 11.3969 47.93 13.12 47.93H30.17C31.8931 47.93 33.29 46.5331 33.29 44.81V5.12C33.29 3.39687 31.8931 2 30.17 2Z" stroke="#654214" stroke-width="2" stroke-miterlimit="10"/>
<path d="M44.65 28.4801C43.34 28.4801 42.2799 29.5401 42.2799 30.8501L42.2599 33.7901V29.1101C42.2599 27.8001 41.1999 26.7401 39.8899 26.7401C38.58 26.7401 37.52 27.8001 37.52 29.1101L37.5 33.7901V27.4201C37.5 26.1101 36.4399 25.0501 35.1299 25.0501C33.82 25.0501 32.76 26.1101 32.76 27.4201V33.7301L32.74 26.0101V19.8401C32.74 18.4501 31.62 17.3301 30.2299 17.3301C28.8399 17.3301 27.7199 18.4501 27.7199 19.8401V36.8701L23.86 33.0101C22.88 32.0301 21.29 32.0301 20.31 33.0101C19.33 33.9901 19.33 35.5801 20.31 36.5601L28.34 44.5901C29.9 47.9301 33.2899 50.2601 37.2299 50.2601C42.65 50.2601 47.04 45.8701 47.04 40.4501V30.8401C47.04 29.5301 45.9799 28.4701 44.6699 28.4701L44.65 28.4801Z" fill="white"/>
<path d="M44.65 28.4801C43.34 28.4801 42.2799 29.5401 42.2799 30.8501L42.2599 33.7901V29.1101C42.2599 27.8001 41.1999 26.7401 39.8899 26.7401C38.5799 26.7401 37.52 27.8001 37.52 29.1101L37.5 33.7901V27.4201C37.5 26.1101 36.4399 25.0501 35.1299 25.0501C33.8199 25.0501 32.76 26.1101 32.76 27.4201V33.7301L32.74 26.0101V19.8401C32.74 18.4501 31.6199 17.3301 30.2299 17.3301C28.8399 17.3301 27.7199 18.4501 27.7199 19.8401V36.8701L23.86 33.0101C22.88 32.0301 21.29 32.0301 20.31 33.0101C19.33 33.9901 19.33 35.5801 20.31 36.5601L28.34 44.5901C29.9 47.9301 33.2899 50.2601 37.2299 50.2601C42.65 50.2601 47.04 45.8701 47.04 40.4501V30.8401C47.04 29.5301 45.9799 28.4701 44.6699 28.4701L44.65 28.4801Z" stroke="#654214" stroke-width="2" stroke-linejoin="round"/>
<path d="M24.04 4.16992H19.11C18.5191 4.16992 18.04 4.64674 18.04 5.23492C18.04 5.82311 18.5191 6.29992 19.11 6.29992H24.04C24.631 6.29992 25.11 5.82311 25.11 5.23492C25.11 4.64674 24.631 4.16992 24.04 4.16992Z" fill="#654214"/>
</g>
</svg>
