<svg width="52" height="52" viewBox="0 0 52 52" fill="none" xmlns="http://www.w3.org/2000/svg">
<mask id="mask0_66_410" style="mask-type:alpha" maskUnits="userSpaceOnUse" x="0" y="0" width="52" height="52">
<rect width="52" height="52" fill="#D9D9D9"/>
</mask>
<g mask="url(#mask0_66_410)">
<path d="M8.26876 29.845C3.7264 25.0772 3.18537 17.3112 7.4234 12.2391C12.0672 6.6823 20.1375 6.47941 25.0293 11.6192L27.4864 14.2003L29.6505 11.9235C34.1929 7.1557 41.5869 6.59213 46.4111 11.0443C51.6973 15.9248 51.9002 24.3896 46.9972 29.5294C43.4016 33.5983 34.8354 41.2403 27.4752 47C20.78 41.8828 10.0496 32.2007 8.24621 29.8337L8.26876 29.845Z" fill="#FFFF5A"/>
<mask id="mask1_66_410" style="mask-type:luminance" maskUnits="userSpaceOnUse" x="2" y="5" width="47" height="40">
<path d="M6.01436 27.5908C1.472 22.823 0.930977 15.057 5.16901 9.99616C9.81281 4.43938 17.8831 4.23649 22.7749 9.37624L25.232 11.9574L27.3961 9.68056C31.9498 4.91277 39.3438 4.34921 44.1679 8.8014C49.4542 13.6819 49.6571 22.1467 44.754 27.2864C41.1585 31.3554 32.5922 38.9974 25.232 44.7571C18.5368 39.6399 7.80651 29.9578 6.00309 27.5908H6.01436Z" fill="white"/>
</mask>
<g mask="url(#mask1_66_410)">
<path d="M53.1737 23.6345H35.7707L29.9772 13.6931L20.4191 29.8224L16.508 23.6345H1.66357" stroke="#654214" stroke-width="2" stroke-linecap="round" stroke-linejoin="round"/>
</g>
<path d="M6.01436 27.5908C1.472 22.823 0.930977 15.057 5.16901 9.99616C9.81281 4.43938 17.8831 4.23649 22.7749 9.37624L25.232 11.9574L27.3961 9.68056C31.9498 4.91277 39.3438 4.34921 44.1679 8.8014C49.4542 13.6819 49.6571 22.1467 44.754 27.2864C41.1585 31.3554 32.5922 38.9974 25.232 44.7571C18.5368 39.6399 7.80651 29.9578 6.00309 27.5908H6.01436Z" stroke="#654214" stroke-width="2" stroke-miterlimit="10"/>
<path d="M6.01436 27.5908C1.472 22.823 0.930977 15.057 5.16901 9.99616C9.81281 4.43938 17.8831 4.23649 22.7749 9.37624L25.232 11.9574L27.3961 9.68056C31.9498 4.91277 39.3438 4.34921 44.1679 8.8014C49.4542 13.6819 49.6571 22.1467 44.754 27.2864C41.1585 31.3554 32.5922 38.9974 25.232 44.7571C18.5368 39.6399 7.80651 29.9578 6.00309 27.5908H6.01436Z" stroke="#654214" stroke-width="2" stroke-miterlimit="10"/>
</g>
</svg>
