<?xml version="1.0" encoding="utf-8"?>
<!-- Generator: Adobe Illustrator 22.0.1, SVG Export Plug-In . SVG Version: 6.00 Build 0)  -->
<svg version="1.1" id="レイヤー_1" xmlns="http://www.w3.org/2000/svg" xmlns:xlink="http://www.w3.org/1999/xlink" x="0px"
	 y="0px" viewBox="0 0 24 24" style="enable-background:new 0 0 24 24;" xml:space="preserve">
<style type="text/css">
	.st0{fill:#FFFFFF;}
</style>
<path class="st0" d="M6.5,20.8C6.5,22.5,5,24,3.3,24C1.5,24,0,22.5,0,20.8c0-1.8,1.5-3.2,3.3-3.2C5,17.5,6.5,19,6.5,20.8z M0,8.2V13
	c6.1,0.1,11,5,11,11h4.8C15.8,15.3,8.7,8.2,0,8.2z M0,4.8c10.6,0,19.2,8.6,19.2,19.2H24C24,10.8,13.2,0,0,0C0,0,0,4.8,0,4.8z"/>
</svg>
