<?xml version="1.0" encoding="UTF-8"?><svg id="_レイヤー_1" xmlns="http://www.w3.org/2000/svg" width="44" height="48" viewBox="0 0 44 48"><defs><style>.cls-1{fill:#fff;}.cls-2{fill:#333;}</style></defs><g id="bg"><path class="cls-1" d="M40,48H4c-2.21,0-4-1.79-4-4V4C0,1.79,1.79,0,4,0h29l11,11v33c0,2.21-1.79,4-4,4Z"/></g><g id="ZIP"><path class="cls-2" d="M6.92,35.66v-2.61l7.52-9.29h-6.67v-2.42h10.48v2.25l-7.84,9.66h8.14v2.41H6.92Z"/><path class="cls-2" d="M20.82,35.66v-14.32h2.89v14.32h-2.89Z"/><path class="cls-2" d="M26.55,35.66v-14.32h4.64c1.76,0,2.9.07,3.44.21.82.21,1.51.68,2.06,1.4s.83,1.65.83,2.79c0,.88-.16,1.62-.48,2.22s-.72,1.07-1.22,1.41c-.49.34-.99.57-1.5.68-.69.14-1.69.21-3,.21h-1.88v5.4h-2.89ZM29.44,23.76v4.06h1.58c1.14,0,1.9-.08,2.29-.22s.69-.38.9-.7.33-.69.33-1.11c0-.52-.15-.95-.46-1.29-.31-.34-.69-.55-1.16-.63-.34-.06-1.04-.1-2.08-.1h-1.4Z"/></g><g id="_ふち"><path class="cls-2" d="M31.76,3l9.24,9.24v31.76c0,.55-.45,1-1,1H4c-.55,0-1-.45-1-1V4c0-.55.45-1,1-1h27.76M33,0H4C1.79,0,0,1.79,0,4v40c0,2.21,1.79,4,4,4h36c2.21,0,4-1.79,4-4V11L33,0h0Z"/><path class="cls-2" d="M44,14h-10c-2.21,0-4-1.79-4-4V0l14,14Z"/></g></svg>